<svg width="165" height="17" viewBox="0 0 165 17" fill="none" xmlns="http://www.w3.org/2000/svg">
<path d="M6.38867 4.37109C5.74544 4.40495 5.20378 4.65039 4.76367 5.10742C4.34049 5.56445 4.03581 6.08919 3.84961 6.68164C3.66341 7.25716 3.57031 7.84961 3.57031 8.45898C3.57031 9.06836 3.65495 9.66927 3.82422 10.2617C4.01042 10.8542 4.32357 11.3789 4.76367 11.8359C5.20378 12.276 5.74544 12.513 6.38867 12.5469H14.7676C15.834 12.6484 16.418 13.2324 16.5195 14.2988C16.5026 14.7728 16.3249 15.1706 15.9863 15.4922C15.6478 15.7969 15.2415 15.9492 14.7676 15.9492H6.66797H5.5C4.3151 15.8815 3.3418 15.4329 2.58008 14.6035C1.81836 13.7572 1.26823 12.8008 0.929688 11.7344C0.608073 10.668 0.447266 9.57617 0.447266 8.45898C0.447266 7.62956 0.540365 6.80859 0.726562 5.99609C0.91276 5.18359 1.20052 4.41341 1.58984 3.68555C1.99609 2.94076 2.5293 2.30599 3.18945 1.78125C3.86654 1.25651 4.63672 0.985677 5.5 0.96875H5.98242H14.7676C15.834 1.07031 16.418 1.6543 16.5195 2.7207C16.5195 3.19466 16.3418 3.59245 15.9863 3.91406C15.6478 4.21875 15.2415 4.37109 14.7676 4.37109H6.38867ZM34.4902 0.96875C35.3535 0.985677 36.1237 1.25651 36.8008 1.78125C37.4779 2.30599 38.0195 2.93229 38.4258 3.66016C38.849 4.38802 39.1621 5.1582 39.3652 5.9707C39.5684 6.7832 39.6699 7.61263 39.6699 8.45898C39.6699 9.57617 39.4922 10.6764 39.1367 11.7598C38.7982 12.8262 38.2311 13.7741 37.4355 14.6035C36.6569 15.4329 35.6751 15.8815 34.4902 15.9492H25.6289C24.444 15.8984 23.4538 15.4583 22.6582 14.6289C21.8626 13.7995 21.2956 12.8431 20.957 11.7598C20.6354 10.6764 20.4746 9.57617 20.4746 8.45898C20.4746 7.3418 20.6439 6.25 20.9824 5.18359C21.321 4.10026 21.8796 3.14388 22.6582 2.31445C23.4538 1.4681 24.444 1.01953 25.6289 0.96875H26.1113H34.0078H34.4902ZM33.627 12.5469C34.2702 12.513 34.8034 12.276 35.2266 11.8359C35.6667 11.3789 35.9798 10.8542 36.166 10.2617C36.3522 9.66927 36.4453 9.06836 36.4453 8.45898C36.4453 7.84961 36.3438 7.25716 36.1406 6.68164C35.9544 6.08919 35.6497 5.56445 35.2266 5.10742C34.8034 4.65039 34.2702 4.40495 33.627 4.37109H26.416C25.7728 4.40495 25.2396 4.65039 24.8164 5.10742C24.3932 5.56445 24.0801 6.08919 23.877 6.68164C23.6908 7.25716 23.5977 7.84961 23.5977 8.45898C23.5977 9.06836 23.6908 9.66927 23.877 10.2617C24.0632 10.8542 24.3678 11.3789 24.791 11.8359C25.2311 12.276 25.7728 12.513 26.416 12.5469H33.627ZM55.457 0.96875C56.6419 1.03646 57.6152 1.49349 58.377 2.33984C59.1387 3.16927 59.6888 4.11719 60.0273 5.18359C60.3659 6.25 60.5352 7.3418 60.5352 8.45898C60.5352 9.57617 60.3659 10.668 60.0273 11.7344C59.7057 12.8008 59.1556 13.7572 58.377 14.6035C57.6152 15.4329 56.6419 15.8815 55.457 15.9492H46.1133C45.6562 15.9323 45.2669 15.7715 44.9453 15.4668C44.6406 15.1452 44.4798 14.7559 44.4629 14.2988V8.00195C44.4798 7.52799 44.6576 7.13867 44.9961 6.83398C45.3346 6.51237 45.7409 6.35156 46.2148 6.35156C46.6719 6.36849 47.0612 6.53776 47.3828 6.85938C47.7044 7.16406 47.8737 7.54492 47.8906 8.00195V11.8613C47.8906 12.3184 48.1276 12.5469 48.6016 12.5469H54.5938C55.237 12.513 55.7702 12.2676 56.1934 11.8105C56.6165 11.3535 56.9212 10.8372 57.1074 10.2617C57.3105 9.66927 57.4121 9.06836 57.4121 8.45898C57.4121 7.84961 57.3105 7.25716 57.1074 6.68164C56.9212 6.08919 56.6165 5.56445 56.1934 5.10742C55.7702 4.65039 55.237 4.40495 54.5938 4.37109H46.1133C45.0977 4.28646 44.5475 3.73633 44.4629 2.7207C44.4629 2.24674 44.6152 1.84049 44.9199 1.50195C45.2415 1.16341 45.6393 0.985677 46.1133 0.96875H55.457ZM70.0254 0.96875H71.1934H79.8262C80.3001 0.985677 80.6895 1.16341 80.9941 1.50195C81.3158 1.84049 81.4766 2.24674 81.4766 2.7207C81.3919 3.73633 80.8418 4.28646 79.8262 4.37109H70.8887C70.2454 4.40495 69.7122 4.65039 69.2891 5.10742C68.8659 5.56445 68.5527 6.08919 68.3496 6.68164C68.1634 7.25716 68.0703 7.84961 68.0703 8.45898C68.0703 9.06836 68.1634 9.66927 68.3496 10.2617C68.5527 10.8372 68.8659 11.3535 69.2891 11.8105C69.7122 12.2676 70.2454 12.513 70.8887 12.5469H79.8262C80.3001 12.5638 80.6895 12.7415 80.9941 13.0801C81.3158 13.4186 81.4766 13.8249 81.4766 14.2988C81.4596 14.7559 81.2904 15.1452 80.9688 15.4668C80.6641 15.7715 80.2832 15.9323 79.8262 15.9492H70.5078H70.0254C68.8405 15.8815 67.8587 15.4329 67.0801 14.6035C66.3184 13.7572 65.7682 12.8008 65.4297 11.7344C65.1081 10.668 64.9473 9.57617 64.9473 8.45898C64.9473 7.3418 65.1165 6.25 65.4551 5.18359C65.7936 4.11719 66.3438 3.16927 67.1055 2.33984C67.8672 1.49349 68.8405 1.03646 70.0254 0.96875ZM81.4258 8.35742C81.4258 8.83138 81.2565 9.22917 80.918 9.55078C80.5964 9.88932 80.1986 10.0586 79.7246 10.0586H72.0566C71.5827 10.0586 71.1764 9.89779 70.8379 9.57617C70.5163 9.23763 70.3555 8.83138 70.3555 8.35742C70.3555 7.88346 70.5163 7.47721 70.8379 7.13867C71.1764 6.81706 71.5827 6.65625 72.0566 6.65625H79.7246C80.1986 6.65625 80.5964 6.82552 80.918 7.16406C81.2565 7.48568 81.4258 7.88346 81.4258 8.35742ZM85.5332 2.66992C85.5332 2.19596 85.694 1.79818 86.0156 1.47656C86.3542 1.13802 86.7604 0.96875 87.2344 0.96875H102.012C102.486 0.96875 102.892 1.12956 103.23 1.45117C103.552 1.78971 103.713 2.19596 103.713 2.66992C103.713 3.14388 103.544 3.55013 103.205 3.88867C102.883 4.21029 102.486 4.37109 102.012 4.37109H96.3496V14.6543C96.248 15.6699 95.6895 16.2201 94.6738 16.3047C94.1999 16.3047 93.7852 16.1523 93.4297 15.8477C93.0911 15.526 92.9219 15.1283 92.9219 14.6543V4.37109H87.2344C86.7604 4.37109 86.3626 4.20182 86.041 3.86328C85.7025 3.54167 85.5332 3.14388 85.5332 2.66992ZM113.102 0.96875H114.27H122.902C123.376 0.985677 123.766 1.16341 124.07 1.50195C124.392 1.84049 124.553 2.24674 124.553 2.7207C124.468 3.73633 123.918 4.28646 122.902 4.37109H113.965C113.322 4.40495 112.788 4.65039 112.365 5.10742C111.942 5.56445 111.629 6.08919 111.426 6.68164C111.24 7.25716 111.146 7.84961 111.146 8.45898C111.146 9.06836 111.24 9.66927 111.426 10.2617C111.629 10.8372 111.942 11.3535 112.365 11.8105C112.788 12.2676 113.322 12.513 113.965 12.5469H122.902C123.376 12.5638 123.766 12.7415 124.07 13.0801C124.392 13.4186 124.553 13.8249 124.553 14.2988C124.536 14.7559 124.367 15.1452 124.045 15.4668C123.74 15.7715 123.359 15.9323 122.902 15.9492H113.584H113.102C111.917 15.8815 110.935 15.4329 110.156 14.6035C109.395 13.7572 108.844 12.8008 108.506 11.7344C108.184 10.668 108.023 9.57617 108.023 8.45898C108.023 7.3418 108.193 6.25 108.531 5.18359C108.87 4.11719 109.42 3.16927 110.182 2.33984C110.943 1.49349 111.917 1.03646 113.102 0.96875ZM124.502 8.35742C124.502 8.83138 124.333 9.22917 123.994 9.55078C123.673 9.88932 123.275 10.0586 122.801 10.0586H115.133C114.659 10.0586 114.253 9.89779 113.914 9.57617C113.592 9.23763 113.432 8.83138 113.432 8.35742C113.432 7.88346 113.592 7.47721 113.914 7.13867C114.253 6.81706 114.659 6.65625 115.133 6.65625H122.801C123.275 6.65625 123.673 6.82552 123.994 7.16406C124.333 7.48568 124.502 7.88346 124.502 8.35742ZM134.881 4.37109C134.238 4.40495 133.696 4.65039 133.256 5.10742C132.833 5.56445 132.528 6.08919 132.342 6.68164C132.156 7.25716 132.062 7.84961 132.062 8.45898C132.062 9.06836 132.147 9.66927 132.316 10.2617C132.503 10.8542 132.816 11.3789 133.256 11.8359C133.696 12.276 134.238 12.513 134.881 12.5469H143.26C144.326 12.6484 144.91 13.2324 145.012 14.2988C144.995 14.7728 144.817 15.1706 144.479 15.4922C144.14 15.7969 143.734 15.9492 143.26 15.9492H135.16H133.992C132.807 15.8815 131.834 15.4329 131.072 14.6035C130.311 13.7572 129.76 12.8008 129.422 11.7344C129.1 10.668 128.939 9.57617 128.939 8.45898C128.939 7.62956 129.033 6.80859 129.219 5.99609C129.405 5.18359 129.693 4.41341 130.082 3.68555C130.488 2.94076 131.021 2.30599 131.682 1.78125C132.359 1.25651 133.129 0.985677 133.992 0.96875H134.475H143.26C144.326 1.07031 144.91 1.6543 145.012 2.7207C145.012 3.19466 144.834 3.59245 144.479 3.91406C144.14 4.21875 143.734 4.37109 143.26 4.37109H134.881ZM151.1 0.5625C151.557 0.579427 151.946 0.748698 152.268 1.07031C152.589 1.375 152.758 1.75586 152.775 2.21289V6.45312H161.027V2.21289C161.044 1.73893 161.222 1.34961 161.561 1.04492C161.899 0.723307 162.305 0.5625 162.779 0.5625C163.236 0.579427 163.626 0.748698 163.947 1.07031C164.269 1.375 164.438 1.75586 164.455 2.21289V14.6543C164.354 15.6699 163.795 16.2201 162.779 16.3047C162.305 16.3047 161.891 16.1523 161.535 15.8477C161.197 15.526 161.027 15.1283 161.027 14.6543V9.85547H152.775V14.6543C152.674 15.6699 152.115 16.2201 151.1 16.3047C150.626 16.3047 150.211 16.1523 149.855 15.8477C149.517 15.526 149.348 15.1283 149.348 14.6543V2.21289C149.365 1.73893 149.542 1.34961 149.881 1.04492C150.219 0.723307 150.626 0.5625 151.1 0.5625Z" fill="black"/>
</svg>
