<svg width="200" height="20" viewBox="0 0 200 20" fill="none" xmlns="http://www.w3.org/2000/svg">
<path d="M8.09375 4.6875C7.30208 4.72917 6.63542 5.03125 6.09375 5.59375C5.57292 6.15625 5.19792 6.80208 4.96875 7.53125C4.73958 8.23958 4.625 8.96875 4.625 9.71875C4.625 10.4688 4.72917 11.2083 4.9375 11.9375C5.16667 12.6667 5.55208 13.3125 6.09375 13.875C6.63542 14.4167 7.30208 14.7083 8.09375 14.75H18.4062C19.7188 14.875 20.4375 15.5938 20.5625 16.9062C20.5417 17.4896 20.3229 17.9792 19.9062 18.375C19.4896 18.75 18.9896 18.9375 18.4062 18.9375H8.4375H7C5.54167 18.8542 4.34375 18.3021 3.40625 17.2812C2.46875 16.2396 1.79167 15.0625 1.375 13.75C0.979167 12.4375 0.78125 11.0938 0.78125 9.71875C0.78125 8.69792 0.895833 7.6875 1.125 6.6875C1.35417 5.6875 1.70833 4.73958 2.1875 3.84375C2.6875 2.92708 3.34375 2.14583 4.15625 1.5C4.98958 0.854167 5.9375 0.520833 7 0.5H7.59375H18.4062C19.7188 0.625 20.4375 1.34375 20.5625 2.65625C20.5625 3.23958 20.3438 3.72917 19.9062 4.125C19.4896 4.5 18.9896 4.6875 18.4062 4.6875H8.09375ZM42.2188 0.5C43.2812 0.520833 44.2292 0.854167 45.0625 1.5C45.8958 2.14583 46.5625 2.91667 47.0625 3.8125C47.5833 4.70833 47.9688 5.65625 48.2188 6.65625C48.4688 7.65625 48.5938 8.67708 48.5938 9.71875C48.5938 11.0938 48.375 12.4479 47.9375 13.7812C47.5208 15.0938 46.8229 16.2604 45.8438 17.2812C44.8854 18.3021 43.6771 18.8542 42.2188 18.9375H31.3125C29.8542 18.875 28.6354 18.3333 27.6562 17.3125C26.6771 16.2917 25.9792 15.1146 25.5625 13.7812C25.1667 12.4479 24.9688 11.0938 24.9688 9.71875C24.9688 8.34375 25.1771 7 25.5938 5.6875C26.0104 4.35417 26.6979 3.17708 27.6562 2.15625C28.6354 1.11458 29.8542 0.5625 31.3125 0.5H31.9062H41.625H42.2188ZM41.1562 14.75C41.9479 14.7083 42.6042 14.4167 43.125 13.875C43.6667 13.3125 44.0521 12.6667 44.2812 11.9375C44.5104 11.2083 44.625 10.4688 44.625 9.71875C44.625 8.96875 44.5 8.23958 44.25 7.53125C44.0208 6.80208 43.6458 6.15625 43.125 5.59375C42.6042 5.03125 41.9479 4.72917 41.1562 4.6875H32.2812C31.4896 4.72917 30.8333 5.03125 30.3125 5.59375C29.7917 6.15625 29.4062 6.80208 29.1562 7.53125C28.9271 8.23958 28.8125 8.96875 28.8125 9.71875C28.8125 10.4688 28.9271 11.2083 29.1562 11.9375C29.3854 12.6667 29.7604 13.3125 30.2812 13.875C30.8229 14.4167 31.4896 14.7083 32.2812 14.75H41.1562ZM67.5625 0.5C69.0208 0.583333 70.2188 1.14583 71.1562 2.1875C72.0938 3.20833 72.7708 4.375 73.1875 5.6875C73.6042 7 73.8125 8.34375 73.8125 9.71875C73.8125 11.0938 73.6042 12.4375 73.1875 13.75C72.7917 15.0625 72.1146 16.2396 71.1562 17.2812C70.2188 18.3021 69.0208 18.8542 67.5625 18.9375H56.0625C55.5 18.9167 55.0208 18.7188 54.625 18.3438C54.25 17.9479 54.0521 17.4688 54.0312 16.9062V9.15625C54.0521 8.57292 54.2708 8.09375 54.6875 7.71875C55.1042 7.32292 55.6042 7.125 56.1875 7.125C56.75 7.14583 57.2292 7.35417 57.625 7.75C58.0208 8.125 58.2292 8.59375 58.25 9.15625V13.9062C58.25 14.4688 58.5417 14.75 59.125 14.75H66.5C67.2917 14.7083 67.9479 14.4062 68.4688 13.8438C68.9896 13.2812 69.3646 12.6458 69.5938 11.9375C69.8438 11.2083 69.9688 10.4688 69.9688 9.71875C69.9688 8.96875 69.8438 8.23958 69.5938 7.53125C69.3646 6.80208 68.9896 6.15625 68.4688 5.59375C67.9479 5.03125 67.2917 4.72917 66.5 4.6875H56.0625C54.8125 4.58333 54.1354 3.90625 54.0312 2.65625C54.0312 2.07292 54.2188 1.57292 54.5938 1.15625C54.9896 0.739583 55.4792 0.520833 56.0625 0.5H67.5625ZM85.0312 0.5H86.4688H97.0938C97.6771 0.520833 98.1562 0.739583 98.5312 1.15625C98.9271 1.57292 99.125 2.07292 99.125 2.65625C99.0208 3.90625 98.3438 4.58333 97.0938 4.6875H86.0938C85.3021 4.72917 84.6458 5.03125 84.125 5.59375C83.6042 6.15625 83.2188 6.80208 82.9688 7.53125C82.7396 8.23958 82.625 8.96875 82.625 9.71875C82.625 10.4688 82.7396 11.2083 82.9688 11.9375C83.2188 12.6458 83.6042 13.2812 84.125 13.8438C84.6458 14.4062 85.3021 14.7083 86.0938 14.75H97.0938C97.6771 14.7708 98.1562 14.9896 98.5312 15.4062C98.9271 15.8229 99.125 16.3229 99.125 16.9062C99.1042 17.4688 98.8958 17.9479 98.5 18.3438C98.125 18.7188 97.6562 18.9167 97.0938 18.9375H85.625H85.0312C83.5729 18.8542 82.3646 18.3021 81.4062 17.2812C80.4688 16.2396 79.7917 15.0625 79.375 13.75C78.9792 12.4375 78.7812 11.0938 78.7812 9.71875C78.7812 8.34375 78.9896 7 79.4062 5.6875C79.8229 4.375 80.5 3.20833 81.4375 2.1875C82.375 1.14583 83.5729 0.583333 85.0312 0.5ZM99.0625 9.59375C99.0625 10.1771 98.8542 10.6667 98.4375 11.0625C98.0417 11.4792 97.5521 11.6875 96.9688 11.6875H87.5312C86.9479 11.6875 86.4479 11.4896 86.0312 11.0938C85.6354 10.6771 85.4375 10.1771 85.4375 9.59375C85.4375 9.01042 85.6354 8.51042 86.0312 8.09375C86.4479 7.69792 86.9479 7.5 87.5312 7.5H96.9688C97.5521 7.5 98.0417 7.70833 98.4375 8.125C98.8542 8.52083 99.0625 9.01042 99.0625 9.59375ZM103.656 2.59375C103.656 2.01042 103.854 1.52083 104.25 1.125C104.667 0.708333 105.167 0.5 105.75 0.5H123.938C124.521 0.5 125.021 0.697917 125.438 1.09375C125.833 1.51042 126.031 2.01042 126.031 2.59375C126.031 3.17708 125.823 3.67708 125.406 4.09375C125.01 4.48958 124.521 4.6875 123.938 4.6875H116.969V17.3438C116.844 18.5938 116.156 19.2708 114.906 19.375C114.323 19.375 113.812 19.1875 113.375 18.8125C112.958 18.4167 112.75 17.9271 112.75 17.3438V4.6875H105.75C105.167 4.6875 104.677 4.47917 104.281 4.0625C103.865 3.66667 103.656 3.17708 103.656 2.59375ZM137.125 0.5H138.562H149.188C149.771 0.520833 150.25 0.739583 150.625 1.15625C151.021 1.57292 151.219 2.07292 151.219 2.65625C151.115 3.90625 150.438 4.58333 149.188 4.6875H138.188C137.396 4.72917 136.74 5.03125 136.219 5.59375C135.698 6.15625 135.312 6.80208 135.062 7.53125C134.833 8.23958 134.719 8.96875 134.719 9.71875C134.719 10.4688 134.833 11.2083 135.062 11.9375C135.312 12.6458 135.698 13.2812 136.219 13.8438C136.74 14.4062 137.396 14.7083 138.188 14.75H149.188C149.771 14.7708 150.25 14.9896 150.625 15.4062C151.021 15.8229 151.219 16.3229 151.219 16.9062C151.198 17.4688 150.99 17.9479 150.594 18.3438C150.219 18.7188 149.75 18.9167 149.188 18.9375H137.719H137.125C135.667 18.8542 134.458 18.3021 133.5 17.2812C132.562 16.2396 131.885 15.0625 131.469 13.75C131.073 12.4375 130.875 11.0938 130.875 9.71875C130.875 8.34375 131.083 7 131.5 5.6875C131.917 4.375 132.594 3.20833 133.531 2.1875C134.469 1.14583 135.667 0.583333 137.125 0.5ZM151.156 9.59375C151.156 10.1771 150.948 10.6667 150.531 11.0625C150.135 11.4792 149.646 11.6875 149.062 11.6875H139.625C139.042 11.6875 138.542 11.4896 138.125 11.0938C137.729 10.6771 137.531 10.1771 137.531 9.59375C137.531 9.01042 137.729 8.51042 138.125 8.09375C138.542 7.69792 139.042 7.5 139.625 7.5H149.062C149.646 7.5 150.135 7.70833 150.531 8.125C150.948 8.52083 151.156 9.01042 151.156 9.59375ZM163.469 4.6875C162.677 4.72917 162.01 5.03125 161.469 5.59375C160.948 6.15625 160.573 6.80208 160.344 7.53125C160.115 8.23958 160 8.96875 160 9.71875C160 10.4688 160.104 11.2083 160.312 11.9375C160.542 12.6667 160.927 13.3125 161.469 13.875C162.01 14.4167 162.677 14.7083 163.469 14.75H173.781C175.094 14.875 175.812 15.5938 175.938 16.9062C175.917 17.4896 175.698 17.9792 175.281 18.375C174.865 18.75 174.365 18.9375 173.781 18.9375H163.812H162.375C160.917 18.8542 159.719 18.3021 158.781 17.2812C157.844 16.2396 157.167 15.0625 156.75 13.75C156.354 12.4375 156.156 11.0938 156.156 9.71875C156.156 8.69792 156.271 7.6875 156.5 6.6875C156.729 5.6875 157.083 4.73958 157.562 3.84375C158.062 2.92708 158.719 2.14583 159.531 1.5C160.365 0.854167 161.312 0.520833 162.375 0.5H162.969H173.781C175.094 0.625 175.812 1.34375 175.938 2.65625C175.938 3.23958 175.719 3.72917 175.281 4.125C174.865 4.5 174.365 4.6875 173.781 4.6875H163.469ZM182.969 0C183.531 0.0208333 184.01 0.229167 184.406 0.625C184.802 1 185.01 1.46875 185.031 2.03125V7.25H195.188V2.03125C195.208 1.44792 195.427 0.96875 195.844 0.59375C196.26 0.197917 196.76 0 197.344 0C197.906 0.0208333 198.385 0.229167 198.781 0.625C199.177 1 199.385 1.46875 199.406 2.03125V17.3438C199.281 18.5938 198.594 19.2708 197.344 19.375C196.76 19.375 196.25 19.1875 195.812 18.8125C195.396 18.4167 195.188 17.9271 195.188 17.3438V11.4375H185.031V17.3438C184.906 18.5938 184.219 19.2708 182.969 19.375C182.385 19.375 181.875 19.1875 181.438 18.8125C181.021 18.4167 180.812 17.9271 180.812 17.3438V2.03125C180.833 1.44792 181.052 0.96875 181.469 0.59375C181.885 0.197917 182.385 0 182.969 0Z" fill="white"/>
</svg>
