<svg width="55" height="63" viewBox="0 0 55 63" fill="none" xmlns="http://www.w3.org/2000/svg">
<path d="M23.3125 33.4627C24.0818 32.4736 26.4777 30.6273 29.9067 31.1548C34.1929 31.8142 37.3816 27.5296 34.981 23.6886" stroke="#7051FF" stroke-width="1.5" stroke-linecap="round"/>
<path d="M23.3114 33.4628C21.7727 28.9568 21.0034 20.0107 30.2352 20.2745" stroke="#7051FF" stroke-width="1.5" stroke-linecap="round"/>
<path d="M0.892578 37.749H6.1679" stroke="#0F151C" stroke-width="1.5" stroke-linecap="round"/>
<path d="M37.1604 10.0533H5.89258C3.13115 10.0533 0.892578 12.2919 0.892578 15.0533V43.2995C0.892578 46.0609 3.13115 48.2995 5.89257 48.2995H48.6458C51.4073 48.2995 53.6458 46.0609 53.6458 43.2995V15.0533C53.6458 12.2919 51.4073 10.0533 48.6458 10.0533H46.722" stroke="#0F151C" stroke-width="1.5"/>
<path d="M10.6406 37.749H53.7075" stroke="#0F151C" stroke-width="1.5" stroke-linecap="round"/>
<path d="M24.631 48.2993L22.9824 55.5529" stroke="#0F151C" stroke-width="1.5"/>
<path d="M30.2362 48.2993L31.8848 55.5529" stroke="#0F151C" stroke-width="1.5"/>
<path d="M30.2363 20.2743L41.3164 3.78926C42.6289 1.8366 45.3298 1.42248 47.167 2.89222V2.89222C48.9174 4.29255 49.1852 6.85362 47.7624 8.58577L35.1819 23.9011" stroke="#0F151C" stroke-width="1.5"/>
<path d="M16.0605 60.8284V59.5531C16.0605 57.344 17.8514 55.5531 20.0605 55.5531H34.4807C36.6898 55.5531 38.4807 57.344 38.4807 59.5531V60.8284" stroke="#0F151C" stroke-width="1.5"/>
<path d="M10.7832 61.7418H43.4243" stroke="#0F151C" stroke-width="1.5" stroke-linecap="round"/>
<path d="M30.2363 20.2744L35.1819 23.9012" stroke="#0F151C" stroke-width="1.5" stroke-linecap="round"/>
<path d="M44.4059 6.37842L42.541 8.8649" stroke="#7051FF" stroke-width="1.5" stroke-linecap="round"/>
</svg>
