<svg width="14" height="14" viewBox="0 0 14 14" fill="none" xmlns="http://www.w3.org/2000/svg">
<path d="M6.23915 1.34164C6.47864 0.604593 7.52136 0.604592 7.76085 1.34164L8.84101 4.66606C8.94811 4.99568 9.25528 5.21885 9.60186 5.21885H13.0974C13.8723 5.21885 14.1946 6.21054 13.5676 6.66606L10.7397 8.72066C10.4593 8.92438 10.342 9.28547 10.4491 9.61509L11.5292 12.9395C11.7687 13.6766 10.9251 14.2895 10.2981 13.8339L7.47023 11.7793C7.18984 11.5756 6.81016 11.5756 6.52977 11.7793L3.70185 13.8339C3.07488 14.2895 2.2313 13.6766 2.47078 12.9395L3.55095 9.61509C3.65805 9.28547 3.54072 8.92438 3.26033 8.72066L0.432411 6.66606C-0.19456 6.21054 0.12766 5.21885 0.902639 5.21885H4.39814C4.74472 5.21885 5.05189 4.99568 5.15899 4.66606L6.23915 1.34164Z" fill="#FDAD00"/>
</svg>
