<svg width="52" height="40" viewBox="0 0 52 40" fill="none" xmlns="http://www.w3.org/2000/svg">
<path d="M0.806641 1C0.806641 1 1.06055 1.25391 1.56836 1.76172C5.27539 5.21484 7.81445 8.56641 9.18555 11.8164C10.1504 14.1523 10.709 16.3613 10.8613 18.4434V20.043C9.18555 20.4492 7.6875 21.3125 6.36719 22.6328C4.4375 24.5625 3.47266 26.9492 3.47266 29.793C3.47266 32.5859 4.4375 34.9727 6.36719 36.9531C8.29688 38.8828 10.6328 39.8477 13.375 39.8477C15.8125 39.8477 18.1484 38.9336 20.3828 37.1055C22.5664 35.3281 23.8867 32.7383 24.3438 29.3359C24.4961 28.168 24.5723 27.0254 24.5723 25.9082C24.5723 21.8457 23.582 17.8594 21.6016 13.9492C17.8945 6.6875 13.2734 2.47266 7.73828 1.30469C6.26562 1 4.81836 0.847656 3.39648 0.847656C2.58398 0.847656 1.7207 0.898438 0.806641 1ZM28 1L28.7617 1.76172C32.4688 5.21484 35.0078 8.56641 36.3789 11.8164C37.3438 14.1523 37.9023 16.3613 38.0547 18.4434V20.043C36.3789 20.4492 34.8809 21.3125 33.5605 22.6328C31.6309 24.5625 30.666 26.9492 30.666 29.793C30.666 32.5859 31.6309 34.9727 33.5605 36.9531C35.4902 38.8828 37.8262 39.8477 40.5684 39.8477C43.0059 39.8477 45.3418 38.9336 47.5762 37.1055C49.7598 35.3281 51.0801 32.7383 51.5371 29.3359C51.6895 28.168 51.7656 27.0254 51.7656 25.9082C51.7656 21.8457 50.7754 17.8594 48.7949 13.9492C45.0879 6.6875 40.4668 2.47266 34.9316 1.30469C33.459 1 32.0117 0.847656 30.5898 0.847656C29.7773 0.847656 28.9141 0.898438 28 1Z" fill="#FDD231"/>
</svg>
