<svg width="46" height="40" viewBox="0 0 46 40" fill="none" xmlns="http://www.w3.org/2000/svg">
<path d="M28.1771 0.000488281C48.2743 13.4119 41.7571 28.1491 41.7571 28.1491C41.7571 28.1491 47.4657 34.4662 45.1714 40.0005C45.1714 40.0005 42.8029 36.1348 38.8714 36.1348C35.0714 36.1348 32.8229 40.0005 25.1514 40.0005C8.08857 40.0005 0 26.0176 0 26.0176C15.3771 35.9605 25.8829 28.9148 25.8829 28.9148C18.94 24.9776 4.21429 6.12335 4.21429 6.12335C17.0514 16.8405 22.5914 19.6548 22.5914 19.6548C19.26 16.9805 9.97714 3.87477 9.97714 3.87477C17.4057 11.2433 32.1714 21.5176 32.1714 21.5176C36.4057 10.1633 28.1771 0.000488281 28.1771 0.000488281Z" fill="#FF5722"/>
</svg>
