<svg width="45" height="40" viewBox="0 0 45 40" fill="none" xmlns="http://www.w3.org/2000/svg">
<path d="M0.130859 19.9566C0.130859 23.2982 3.3939 26.4178 8.53835 28.1761C7.51105 33.3479 8.35424 37.5163 11.1706 39.1406C14.0655 40.81 18.3782 39.6544 22.4715 36.0764C26.4616 39.51 30.4943 40.8613 33.308 39.2324C36.2001 37.5581 37.0798 33.107 36.0241 27.7738C41.3823 26.0022 44.3795 23.3422 44.3795 19.9566C44.3795 16.6925 41.1104 13.8685 36.0354 12.1214C37.1719 6.56782 36.2089 2.50055 33.276 0.809214C30.4483 -0.821339 26.3688 0.599854 22.3201 4.12339C18.108 0.383435 14.0688 -0.75842 11.1387 0.937846C8.31384 2.57304 7.50773 6.8172 8.53835 12.0847C3.56761 13.8178 0.130859 16.7055 0.130859 19.9566Z" fill="white"/>
<path d="M34.9602 13.8563C34.5526 13.716 34.1302 13.5832 33.6952 13.4577C33.7667 13.1659 33.8323 12.878 33.8907 12.5949C34.8482 7.94665 34.2221 4.202 32.0842 2.9691C30.0342 1.78691 26.6815 3.01953 23.2955 5.96629C22.9699 6.24965 22.6433 6.54965 22.317 6.86407C22.0995 6.65604 21.8824 6.45501 21.6658 6.26273C18.1172 3.11186 14.5602 1.78404 12.4243 3.02051C10.3763 4.20612 9.76974 7.72645 10.6317 12.1316C10.7149 12.5571 10.8122 12.9916 10.9223 13.4334C10.4189 13.5763 9.93286 13.7287 9.46785 13.8907C5.30743 15.3412 2.65039 17.6145 2.65039 19.9726C2.65039 22.4079 5.50272 24.8506 9.83612 26.3318C10.1781 26.4487 10.5329 26.5592 10.8986 26.6641C10.7799 27.1419 10.6767 27.6101 10.59 28.0668C9.76813 32.3956 10.41 35.8327 12.4526 37.0108C14.5624 38.2275 18.1033 36.9769 21.5513 33.963C21.8238 33.7248 22.0973 33.4721 22.3712 33.2073C22.7264 33.5493 23.0809 33.8729 23.4336 34.1765C26.7733 37.0504 30.0719 38.2109 32.1126 37.0295C34.2203 35.8094 34.9053 32.117 34.016 27.6247C33.9481 27.2816 33.869 26.9311 33.7803 26.5744C34.0289 26.5008 34.2731 26.425 34.5111 26.3461C39.0161 24.8534 41.9472 22.4405 41.9472 19.9726C41.9472 17.606 39.2045 15.3174 34.9602 13.8563Z" fill="#53C1DE"/>
<path fill-rule="evenodd" clip-rule="evenodd" d="M32.2476 12.2562C33.0743 8.24295 32.5626 5.18245 31.2467 4.42359C30.0113 3.71117 27.2997 4.708 24.3986 7.23276C24.0983 7.49416 23.7967 7.77115 23.4948 8.06164C24.6179 9.27188 25.7369 10.6698 26.8167 12.2074C28.6702 12.3813 30.4406 12.6613 32.0709 13.0374C32.1354 12.7731 32.1948 12.5123 32.2476 12.2562ZM13.2664 4.47353C12.0322 5.18798 11.5417 8.03513 12.2802 11.8094C12.3575 12.2045 12.4481 12.6087 12.5503 13.02C14.1769 12.6515 15.946 12.3764 17.7942 12.2051C18.8719 10.6841 20.0001 9.28839 21.1418 8.06241C20.9446 7.87411 20.748 7.69211 20.5521 7.51822C17.4882 4.7976 14.5811 3.71243 13.2664 4.47353ZM10.3801 24.7434C8.46392 24.0885 6.88149 23.2373 5.79681 22.3085C4.82216 21.4738 4.33008 20.6451 4.33008 19.9727C4.33008 18.5418 6.46341 16.7166 10.0214 15.4761C10.4532 15.3256 10.9051 15.1837 11.3741 15.0505C11.8658 16.65 12.5109 18.3224 13.2893 20.0135C12.5008 21.7298 11.8466 23.4288 11.35 25.0471C11.0157 24.951 10.6918 24.8499 10.3801 24.7434ZM33.9841 24.7527C33.7693 24.8239 33.5488 24.8926 33.3241 24.9593C32.8268 23.3848 32.1556 21.7106 31.3342 19.9809C32.118 18.2923 32.7633 16.6395 33.2467 15.0753C33.6487 15.1916 34.0388 15.3143 34.4148 15.4438C38.0513 16.6956 40.2694 18.5465 40.2694 19.9727C40.2694 21.4918 37.8739 23.4639 33.9841 24.7527ZM32.3702 27.9509C32.7634 29.9373 32.8196 31.7333 32.5591 33.1373C32.3251 34.3989 31.8544 35.24 31.2724 35.5768C30.034 36.2937 27.3856 35.3619 24.5294 32.9041C24.202 32.6223 23.8722 32.3215 23.5414 32.0031C24.6486 30.7921 25.7553 29.3842 26.8353 27.8207C28.7351 27.6521 30.5298 27.3765 32.1575 27.0003C32.2376 27.3236 32.3088 27.6408 32.3702 27.9509ZM13.2924 35.5566C13.8749 35.8925 14.8386 35.8803 16.0486 35.453C17.3951 34.9774 18.9229 34.0318 20.4476 32.6991C20.6959 32.482 20.9456 32.2516 21.1963 32.0096C20.0489 30.7782 18.9103 29.3719 17.8229 27.842C15.9187 27.6876 14.137 27.4314 12.5273 27.0755C12.4168 27.5206 12.321 27.9561 12.2405 28.3801C11.5376 32.082 12.0529 34.8417 13.2924 35.5566ZM29.2311 15.995C28.8422 15.3233 28.443 14.6676 28.0361 14.0297C29.2899 14.1882 30.4912 14.3986 31.6193 14.6561C31.2806 15.7416 30.8585 16.8765 30.3616 18.0399C30.0051 17.3632 29.6281 16.6808 29.2311 15.995ZM24.631 12.0538C23.8683 11.0376 23.0929 10.101 22.3185 9.26216C21.5321 10.1107 20.75 11.046 19.9865 12.0528C20.7503 12.0171 21.5227 11.9987 22.2998 11.9987C23.0843 11.9987 23.8624 12.0175 24.631 12.0538ZM15.3617 16.0066C14.9733 16.6801 14.6033 17.3587 14.2524 18.0386C13.7636 16.8793 13.3454 15.7392 13.0037 14.6383C14.1249 14.3874 15.3205 14.1823 16.5664 14.0268C16.1537 14.6705 15.7512 15.3311 15.3617 16.0064V16.0066ZM12.9806 25.4562C14.1015 25.7002 15.3151 25.8948 16.6023 26.0384C16.1789 25.3815 15.7665 24.7079 15.3685 24.0202H15.3684C14.9776 23.3452 14.6061 22.6663 14.2543 21.9869C13.7551 23.1713 13.3277 24.3357 12.9806 25.4562ZM22.365 30.8016C21.5693 29.9431 20.7757 28.9935 20.0006 27.9721C20.753 28.0016 21.5202 28.0167 22.2998 28.0167C23.1008 28.0167 23.8926 27.9986 24.6719 27.9639C23.9067 29.0038 23.1341 29.9549 22.365 30.8016ZM31.6971 25.3834C31.3456 24.282 30.9028 23.1237 30.3776 21.9265C30.0182 22.6193 29.6381 23.3145 29.2378 24.0087C28.8421 24.6948 28.4394 25.3618 28.0315 26.0083C29.3276 25.8527 30.5578 25.6434 31.6971 25.3834ZM27.7836 23.17C27.1693 24.2351 26.5387 25.2519 25.8985 26.2116C24.7324 26.295 23.5277 26.3379 22.2998 26.3379C21.0769 26.3379 19.8874 26.3 18.7419 26.2256C18.0759 25.2533 17.4315 24.2335 16.8211 23.1792H16.8213C16.2125 22.1277 15.6522 21.0674 15.1446 20.013C15.6521 18.9561 16.2109 17.8946 16.8162 16.8451L16.816 16.8453C17.4229 15.7929 18.0616 14.7781 18.7215 13.8118C19.8902 13.7235 21.0886 13.6774 22.2997 13.6774H22.2998C23.5164 13.6774 24.7163 13.7238 25.8847 13.813C26.5345 14.7722 27.1689 15.7837 27.7781 16.8362C28.3943 17.9005 28.9603 18.955 29.4722 19.9891C28.9618 21.0411 28.3971 22.1062 27.7836 23.17Z" fill="white"/>
<path d="M22.2981 16.4636C24.2361 16.4636 25.8072 18.0346 25.8072 19.9727C25.8072 21.9107 24.2361 23.4818 22.2981 23.4818C20.3602 23.4818 18.7891 21.9107 18.7891 19.9727C18.7891 18.0346 20.3602 16.4636 22.2981 16.4636Z" fill="#53C1DE"/>
</svg>
