<svg width="531" height="542" viewBox="0 0 531 542" fill="none" xmlns="http://www.w3.org/2000/svg">
<path d="M188.465 338.332L131.759 211.033C131.134 209.634 130.238 208.373 129.122 207.323C128.006 206.273 126.692 205.456 125.258 204.917C123.823 204.379 122.296 204.131 120.765 204.188C119.234 204.244 117.729 204.604 116.338 205.247L91.052 216.357C89.6494 216.981 88.3851 217.879 87.3328 218.997C86.2805 220.115 85.4612 221.431 84.9227 222.869C84.3841 224.307 84.1371 225.838 84.196 227.372C84.2549 228.906 84.6185 230.414 85.2657 231.806C154.383 387.4 149.61 377.072 150.159 377.072C150.251 377.071 150.341 377.047 150.421 377.002C150.501 376.957 150.569 376.893 150.618 376.815C150.667 376.737 150.695 376.649 150.701 376.557C150.707 376.465 150.69 376.374 150.651 376.291L86.1047 231.343C84.9643 228.772 84.8904 225.854 85.8993 223.229C86.9082 220.603 88.9174 218.486 91.486 217.34L116.772 206.086C119.343 204.945 122.261 204.871 124.887 205.88C127.512 206.889 129.63 208.898 130.775 211.467C189.94 344.09 187.308 339.085 187.973 339.085C188.061 339.081 188.147 339.057 188.224 339.014C188.301 338.971 188.366 338.91 188.414 338.836C188.462 338.762 188.492 338.678 188.501 338.59C188.51 338.503 188.497 338.414 188.465 338.332Z" fill="#0F151C"/>
<path d="M215.459 398.973L206.779 379.155C206.706 379.053 206.599 378.979 206.478 378.946C206.356 378.913 206.227 378.923 206.112 378.974C205.997 379.025 205.903 379.114 205.845 379.225C205.788 379.337 205.77 379.466 205.796 379.589L214.475 399.436C215.616 402.007 215.69 404.925 214.681 407.55C213.672 410.176 211.663 412.293 209.094 413.439L183.808 424.693C181.24 425.836 178.325 425.914 175.7 424.91C173.076 423.907 170.956 421.904 169.805 419.341L161.733 401.172C161.703 401.105 161.659 401.046 161.606 400.996C161.552 400.946 161.489 400.907 161.421 400.882C161.352 400.856 161.28 400.844 161.207 400.847C161.133 400.85 161.062 400.867 160.995 400.897C160.929 400.927 160.869 400.971 160.819 401.024C160.769 401.078 160.73 401.14 160.705 401.209C160.679 401.277 160.668 401.35 160.67 401.423C160.673 401.496 160.69 401.568 160.72 401.635L168.821 419.775C169.432 421.187 170.319 422.462 171.429 423.527C172.539 424.592 173.851 425.425 175.286 425.977C176.722 426.53 178.254 426.79 179.791 426.743C181.329 426.697 182.842 426.344 184.242 425.706L209.557 414.423C210.97 413.809 212.246 412.919 213.31 411.806C214.374 410.692 215.206 409.377 215.756 407.939C216.305 406.5 216.562 404.965 216.511 403.426C216.46 401.886 216.103 400.373 215.459 398.973Z" fill="#3B29AB"/>
<path d="M285.762 379.3L263.195 389.397C260.628 390.536 257.714 390.609 255.094 389.6C252.473 388.591 250.361 386.582 249.221 384.016L236.52 355.518C236.462 355.384 236.354 355.278 236.218 355.223C236.083 355.169 235.931 355.171 235.797 355.229C235.662 355.286 235.557 355.395 235.502 355.53C235.448 355.666 235.45 355.818 235.507 355.952L248.208 384.45C248.833 385.852 249.731 387.116 250.849 388.169C251.967 389.221 253.283 390.04 254.721 390.579C256.159 391.117 257.69 391.365 259.224 391.306C260.758 391.247 262.266 390.883 263.658 390.236L286.311 380.168C286.378 380.078 286.416 379.971 286.42 379.86C286.425 379.748 286.395 379.638 286.336 379.544C286.276 379.45 286.189 379.376 286.087 379.333C285.984 379.289 285.871 379.278 285.762 379.3Z" fill="#3B29AB"/>
<path d="M295.019 364.313L280.554 331.736C280.48 331.626 280.37 331.547 280.244 331.512C280.117 331.477 279.982 331.488 279.862 331.544C279.743 331.6 279.648 331.697 279.595 331.817C279.541 331.937 279.532 332.073 279.57 332.199L294.036 364.776C294.109 364.885 294.219 364.965 294.346 365C294.472 365.035 294.608 365.024 294.727 364.968C294.846 364.912 294.941 364.815 294.995 364.695C295.048 364.574 295.057 364.439 295.019 364.313Z" fill="#3B29AB"/>
<path d="M259.175 283.767L240.196 241.093C239.571 239.694 238.675 238.433 237.559 237.383C236.443 236.333 235.129 235.516 233.695 234.977C232.26 234.439 230.733 234.191 229.202 234.248C227.671 234.304 226.166 234.664 224.775 235.307L199.547 246.503C198.148 247.128 196.887 248.025 195.837 249.141C194.787 250.257 193.969 251.57 193.431 253.004C192.893 254.439 192.645 255.966 192.701 257.497C192.758 259.028 193.118 260.533 193.76 261.924L216.906 314.29C216.963 314.424 217.072 314.53 217.207 314.585C217.343 314.639 217.495 314.637 217.629 314.58C217.763 314.522 217.869 314.413 217.924 314.278C217.978 314.142 217.976 313.991 217.918 313.856L194.599 261.49C194.031 260.218 193.719 258.845 193.682 257.452C193.645 256.059 193.883 254.672 194.383 253.371C194.883 252.07 195.635 250.881 196.595 249.871C197.556 248.861 198.706 248.051 199.981 247.487L225.267 236.233C226.539 235.664 227.912 235.352 229.305 235.315C230.698 235.278 232.085 235.516 233.386 236.016C234.687 236.516 235.876 237.268 236.886 238.228C237.896 239.189 238.706 240.34 239.27 241.614L258.22 284.201C258.298 284.288 258.402 284.348 258.517 284.372C258.631 284.396 258.75 284.383 258.857 284.335C258.963 284.286 259.051 284.205 259.109 284.103C259.166 284.001 259.189 283.883 259.175 283.767Z" fill="#0F151C"/>
<path d="M347.299 268.318L332.081 234.15C330.789 231.35 328.446 229.173 325.559 228.09C322.673 227.007 319.475 227.105 316.661 228.363L291.346 239.647C289.947 240.271 288.686 241.168 287.636 242.284C286.586 243.4 285.768 244.713 285.23 246.148C284.692 247.582 284.444 249.109 284.5 250.64C284.557 252.172 284.917 253.676 285.559 255.067L299.331 286.024C299.404 286.133 299.514 286.213 299.641 286.248C299.767 286.283 299.903 286.272 300.022 286.216C300.141 286.16 300.236 286.063 300.29 285.943C300.343 285.823 300.352 285.687 300.314 285.561L286.34 254.488C285.2 251.918 285.126 248.999 286.135 246.374C287.144 243.749 289.153 241.631 291.722 240.486L317.008 229.231C319.579 228.091 322.497 228.017 325.122 229.026C327.748 230.035 329.865 232.044 331.011 234.612L346.2 268.752C346.605 269.388 347.589 268.954 347.299 268.318Z" fill="#0F151C"/>
<path d="M453.334 293.17L429.726 240.167C429.709 240.087 429.675 240.012 429.625 239.946C429.576 239.881 429.512 239.828 429.439 239.79C429.366 239.753 429.286 239.732 429.204 239.73C429.122 239.727 429.041 239.743 428.966 239.776C428.891 239.809 428.824 239.859 428.771 239.921C428.718 239.983 428.679 240.056 428.657 240.135C428.636 240.215 428.632 240.297 428.647 240.378C428.662 240.459 428.694 240.535 428.742 240.601L452.351 293.633C453.49 296.2 453.563 299.114 452.554 301.734C451.545 304.355 449.536 306.467 446.969 307.607L425.676 317.097C425.609 317.125 425.549 317.166 425.498 317.218C425.448 317.27 425.408 317.331 425.381 317.398C425.354 317.465 425.341 317.537 425.342 317.61C425.343 317.682 425.358 317.753 425.386 317.82C425.415 317.886 425.456 317.947 425.508 317.997C425.56 318.048 425.621 318.087 425.688 318.114C425.755 318.141 425.827 318.155 425.899 318.154C425.972 318.153 426.043 318.138 426.11 318.109L447.403 308.62C448.819 308.008 450.098 307.121 451.165 306.008C452.232 304.896 453.067 303.582 453.619 302.143C454.172 300.704 454.431 299.168 454.382 297.628C454.333 296.087 453.977 294.571 453.334 293.17Z" fill="#3B29AB"/>
<path d="M408.779 195.699L398.884 173.509C398.827 173.375 398.825 173.223 398.879 173.087C398.934 172.952 399.039 172.843 399.174 172.786C399.308 172.728 399.46 172.726 399.595 172.78C399.731 172.835 399.839 172.941 399.897 173.075L409.792 195.265C409.82 195.332 409.835 195.403 409.836 195.476C409.837 195.548 409.824 195.62 409.797 195.687C409.77 195.754 409.73 195.815 409.68 195.867C409.629 195.919 409.569 195.96 409.502 195.989C409.368 196.046 409.216 196.048 409.081 195.994C408.945 195.94 408.837 195.834 408.779 195.699Z" fill="#3B29AB"/>
<path d="M387.601 145.619L369.519 105.114C368.894 103.715 367.998 102.454 366.882 101.405C365.766 100.355 364.452 99.5369 363.018 98.9987C361.583 98.4604 360.056 98.2123 358.525 98.2689C356.994 98.3254 355.489 98.6855 354.098 99.3281L328.783 110.611C327.384 111.236 326.123 112.133 325.073 113.249C324.023 114.365 323.206 115.678 322.667 117.112C322.129 118.547 321.881 120.074 321.938 121.605C321.994 123.136 322.354 124.641 322.997 126.032C353.78 195.208 351.726 190.955 352.247 190.955C352.338 190.953 352.428 190.929 352.509 190.885C352.589 190.84 352.656 190.775 352.705 190.698C352.754 190.62 352.783 190.531 352.789 190.44C352.794 190.348 352.777 190.257 352.739 190.173L323.952 125.367C323.383 124.094 323.071 122.722 323.034 121.329C322.997 119.936 323.235 118.549 323.735 117.248C324.235 115.947 324.987 114.757 325.947 113.748C326.908 112.738 328.058 111.928 329.333 111.364L354.619 100.109C357.186 98.967 360.102 98.8889 362.726 99.8921C365.351 100.895 367.471 102.898 368.622 105.462C387.862 148.599 386.617 146.371 387.196 146.371C387.277 146.356 387.353 146.323 387.419 146.274C387.485 146.226 387.539 146.163 387.578 146.091C387.617 146.019 387.639 145.939 387.643 145.858C387.647 145.776 387.633 145.694 387.601 145.619Z" fill="#0F151C"/>
<path d="M504.659 287.094L407.333 68.487C402.619 57.93 393.909 49.6755 383.114 45.5365C372.318 41.3975 360.322 41.7124 349.759 46.4122L171.598 125.714C166.249 113.936 156.461 104.751 144.368 100.161C132.274 95.5701 118.857 95.9465 107.04 101.208C95.2231 106.469 85.9654 116.188 81.285 128.247C76.6047 140.306 76.8812 153.726 82.0545 165.582L56.8839 176.807C51.6525 179.132 46.9307 182.466 42.9882 186.617C39.0457 190.768 35.9599 195.655 33.9071 200.999C31.8544 206.343 30.8749 212.04 31.0247 217.762C31.1745 223.485 32.4506 229.123 34.7802 234.352L132.106 452.931C134.431 458.165 137.766 462.891 141.919 466.836C146.072 470.78 150.962 473.868 156.31 475.921C161.657 477.974 167.357 478.952 173.083 478.8C178.809 478.648 184.449 477.368 189.68 475.034L272.569 438.118C272.635 438.092 272.695 438.054 272.745 438.005C272.795 437.956 272.835 437.897 272.862 437.832C272.889 437.767 272.903 437.698 272.902 437.627C272.902 437.557 272.887 437.488 272.859 437.423C272.83 437.357 272.789 437.296 272.737 437.246C272.685 437.195 272.624 437.155 272.557 437.128C272.49 437.101 272.418 437.088 272.346 437.089C272.273 437.09 272.202 437.105 272.135 437.134L189.246 474.051C184.139 476.337 178.631 477.592 173.038 477.746C167.445 477.899 161.876 476.948 156.652 474.945C151.427 472.943 146.649 469.93 142.59 466.077C138.532 462.225 135.274 457.61 133.003 452.497L35.7928 233.918C33.5209 228.818 32.2762 223.32 32.1299 217.738C31.9837 212.156 32.9386 206.601 34.9403 201.388C36.9419 196.176 39.9511 191.409 43.7957 187.36C47.6403 183.311 52.245 180.059 57.3468 177.791L350.193 47.3959C355.308 45.1228 360.821 43.8811 366.416 43.7418C372.012 43.6024 377.58 44.5682 382.801 46.5837C388.023 48.5993 392.796 51.6251 396.846 55.4879C400.897 59.3506 404.146 63.9744 406.407 69.0946L503.646 287.528C508.221 297.827 508.523 309.52 504.488 320.042C500.453 330.564 492.409 339.056 482.121 343.656L326.064 413.092C325.954 413.146 325.866 413.236 325.813 413.347C325.76 413.458 325.746 413.583 325.772 413.703C325.799 413.823 325.865 413.93 325.96 414.008C326.054 414.086 326.173 414.13 326.295 414.133C326.585 414.133 326.527 414.133 339.372 408.347C345.41 421.192 354.902 432.106 366.786 439.867C378.67 447.628 392.478 451.93 406.667 452.294C462.158 453.741 500.84 397.324 478.013 346.751L482.555 344.726C493.127 340.013 501.393 331.294 505.538 320.486C509.683 309.679 509.367 297.668 504.659 287.094ZM83.0671 165.148C79.0488 155.955 78.0363 145.729 80.1739 135.927L125.452 146.284L83.0671 165.148ZM128.258 144.895L151.924 105.114C160.135 110.091 166.65 117.432 170.614 126.177L128.258 144.895ZM340.385 407.826L405.684 378.895L351.35 424.954C346.929 419.815 343.239 414.09 340.385 407.942V407.826ZM351.958 425.619L407.998 378.113L416.533 450.761C404.575 451.988 392.496 450.36 381.29 446.009C370.084 441.659 360.07 434.71 352.073 425.735L351.958 425.619ZM473.471 414.046L409.561 377.072L477.029 347.041C481.829 357.701 484.013 369.354 483.399 381.029C482.785 392.704 479.391 404.064 473.499 414.162L473.471 414.046Z" fill="#0F151C"/>
<path d="M514.264 151.781L509.259 216.704C508.865 222.022 506.6 227.029 502.867 230.837C499.133 234.645 494.171 237.007 488.862 237.506C469.37 238.706 449.815 238.445 430.362 236.724C424.576 256.456 423.071 273.149 421.683 295.485C395.21 289.409 370.445 286.516 348.515 288.743C345.931 265.867 345.659 242.788 347.704 219.857L331.561 224.66C298.723 221.767 272.395 215.373 239.5 207.301C238.028 201.411 237.808 195.278 238.855 189.297C239.901 183.317 242.191 177.623 245.576 172.583C287.179 183.085 323.315 190.434 365.989 190.839L384.071 240.023L418.616 197.204C437.088 198.77 455.629 199.378 474.165 199.026L478.215 148.541C490.328 147.294 502.568 148.394 514.264 151.781Z" fill="url(#paint0_linear_5_1399)"/>
<path d="M206.142 379.965C205.996 379.965 205.856 379.907 205.753 379.804C205.65 379.701 205.592 379.561 205.592 379.415C205.592 379.269 205.65 379.13 205.753 379.026C205.856 378.923 205.996 378.865 206.142 378.865C206.287 378.865 206.427 378.923 206.53 379.026C206.633 379.13 206.691 379.269 206.691 379.415C206.691 379.561 206.633 379.701 206.53 379.804C206.427 379.907 206.287 379.965 206.142 379.965Z" fill="#3B29AB"/>
<path d="M245.143 202.412C245.327 202.631 245.552 202.811 245.806 202.943C246.06 203.075 246.337 203.155 246.622 203.18C246.907 203.204 247.194 203.171 247.466 203.084C247.739 202.997 247.991 202.857 248.21 202.672C248.65 202.301 248.927 201.771 248.981 201.198C249.035 200.624 248.862 200.052 248.499 199.605C248.122 199.163 247.588 198.885 247.01 198.831C246.432 198.777 245.855 198.951 245.403 199.316C244.959 199.692 244.682 200.229 244.633 200.81C244.584 201.39 244.767 201.966 245.143 202.412Z" fill="#3B29AB"/>
<path d="M297.19 193.558C297.566 194.001 298.101 194.278 298.679 194.332C299.257 194.386 299.834 194.213 300.285 193.848C300.73 193.471 301.007 192.934 301.056 192.354C301.105 191.773 300.921 191.197 300.546 190.752C300.162 190.307 299.617 190.033 299.032 189.989C298.446 189.946 297.866 190.137 297.421 190.521C296.976 190.904 296.702 191.449 296.658 192.035C296.615 192.621 296.806 193.2 297.19 193.645V193.558Z" fill="#3B29AB"/>
<path d="M338.418 219.018C338.608 219.237 338.839 219.416 339.098 219.545C339.357 219.674 339.639 219.751 339.928 219.771C340.217 219.791 340.507 219.754 340.781 219.662C341.056 219.57 341.31 219.425 341.528 219.235C341.747 219.045 341.925 218.814 342.055 218.555C342.184 218.296 342.261 218.014 342.281 217.725C342.301 217.436 342.264 217.146 342.172 216.872C342.08 216.597 341.935 216.344 341.745 216.125C341.555 215.907 341.324 215.728 341.065 215.599C340.806 215.47 340.524 215.393 340.235 215.373C339.946 215.352 339.656 215.389 339.382 215.481C339.107 215.573 338.853 215.718 338.635 215.908C338.416 216.098 338.238 216.329 338.108 216.588C337.979 216.847 337.902 217.129 337.882 217.418C337.862 217.707 337.899 217.997 337.991 218.272C338.083 218.546 338.228 218.8 338.418 219.018Z" fill="#3B29AB"/>
<path d="M435.426 227.148C435.809 227.589 436.353 227.86 436.936 227.901C437.519 227.941 438.095 227.749 438.536 227.365C438.977 226.981 439.248 226.438 439.289 225.855C439.329 225.272 439.137 224.696 438.753 224.255C438.563 224.036 438.332 223.858 438.073 223.728C437.814 223.599 437.532 223.522 437.243 223.502C436.954 223.482 436.664 223.519 436.389 223.611C436.115 223.703 435.861 223.848 435.643 224.038C435.424 224.228 435.245 224.459 435.116 224.718C434.987 224.977 434.91 225.259 434.89 225.548C434.87 225.837 434.907 226.127 434.999 226.401C435.091 226.676 435.236 226.93 435.426 227.148Z" fill="#3B29AB"/>
<path d="M500.609 210.917C500.886 211.244 501.254 211.482 501.666 211.6C502.078 211.718 502.516 211.711 502.924 211.58C503.333 211.45 503.693 211.201 503.96 210.866C504.228 210.531 504.389 210.124 504.426 209.697C504.462 209.27 504.371 208.842 504.164 208.466C503.957 208.091 503.644 207.785 503.263 207.588C502.883 207.39 502.453 207.31 502.027 207.357C501.601 207.403 501.198 207.575 500.87 207.851C500.65 208.034 500.47 208.26 500.338 208.514C500.206 208.767 500.126 209.045 500.102 209.33C500.077 209.615 500.11 209.902 500.197 210.174C500.284 210.447 500.424 210.699 500.609 210.917Z" fill="#3B29AB"/>
<path d="M374.871 243.668C375.055 243.887 375.28 244.068 375.534 244.2C375.788 244.332 376.066 244.412 376.351 244.436C376.636 244.46 376.923 244.428 377.195 244.341C377.467 244.254 377.72 244.114 377.938 243.929C378.383 243.552 378.66 243.015 378.709 242.435C378.757 241.854 378.574 241.278 378.198 240.833C378.015 240.614 377.789 240.433 377.536 240.301C377.282 240.169 377.004 240.089 376.719 240.065C376.434 240.041 376.147 240.073 375.875 240.16C375.602 240.247 375.35 240.387 375.132 240.572C374.687 240.949 374.41 241.486 374.361 242.066C374.312 242.647 374.496 243.223 374.871 243.668Z" fill="#3B29AB"/>
<path d="M389.975 245.23C390.255 245.563 390.628 245.805 391.046 245.926C391.464 246.046 391.909 246.04 392.323 245.908C392.738 245.776 393.104 245.524 393.375 245.184C393.646 244.844 393.81 244.431 393.847 243.997C393.883 243.564 393.79 243.129 393.58 242.748C393.369 242.368 393.05 242.058 392.664 241.859C392.277 241.659 391.84 241.579 391.408 241.628C390.975 241.677 390.567 241.854 390.235 242.135C389.791 242.511 389.514 243.048 389.465 243.629C389.416 244.209 389.599 244.785 389.975 245.23Z" fill="#3B29AB"/>
<path d="M410.457 282.002C410.738 282.335 411.111 282.577 411.529 282.698C411.947 282.818 412.391 282.812 412.805 282.68C413.22 282.548 413.586 282.296 413.857 281.956C414.129 281.616 414.293 281.203 414.329 280.769C414.366 280.336 414.273 279.901 414.062 279.521C413.852 279.14 413.533 278.83 413.146 278.631C412.759 278.431 412.322 278.351 411.89 278.4C411.458 278.449 411.05 278.626 410.718 278.907C410.273 279.283 409.996 279.82 409.947 280.401C409.898 280.981 410.082 281.557 410.457 282.002Z" fill="#3B29AB"/>
<path d="M354.33 276.679C354.514 276.898 354.739 277.079 354.993 277.211C355.247 277.343 355.525 277.423 355.81 277.447C356.095 277.471 356.382 277.439 356.654 277.352C356.926 277.265 357.179 277.125 357.397 276.939C357.842 276.563 358.119 276.026 358.168 275.445C358.216 274.865 358.033 274.289 357.657 273.844C357.474 273.625 357.248 273.444 356.995 273.312C356.741 273.18 356.463 273.1 356.178 273.076C355.893 273.052 355.606 273.084 355.334 273.171C355.061 273.258 354.809 273.398 354.591 273.583C354.146 273.96 353.869 274.497 353.82 275.077C353.771 275.658 353.955 276.234 354.33 276.679Z" fill="#3B29AB"/>
<path d="M482.527 159.419C482.903 159.864 483.44 160.141 484.021 160.19C484.601 160.238 485.177 160.055 485.623 159.68C485.848 159.502 486.036 159.281 486.176 159.031C486.316 158.78 486.404 158.504 486.436 158.219C486.469 157.933 486.444 157.645 486.364 157.369C486.284 157.093 486.15 156.836 485.97 156.613C485.78 156.392 485.548 156.212 485.288 156.081C485.029 155.95 484.745 155.871 484.455 155.85C484.165 155.828 483.874 155.864 483.597 155.955C483.321 156.047 483.065 156.191 482.845 156.381C482.625 156.571 482.444 156.803 482.313 157.063C482.182 157.322 482.104 157.606 482.082 157.896C482.061 158.186 482.097 158.477 482.188 158.754C482.279 159.03 482.424 159.286 482.614 159.506L482.527 159.419Z" fill="#3B29AB"/>
<path d="M495.62 470.682C495.129 469.673 494.924 468.571 495.025 467.475C495.125 466.379 495.528 465.322 496.196 464.397C496.865 463.473 497.779 462.709 498.857 462.175C499.935 461.641 501.145 461.352 502.379 461.334C503.612 461.316 504.832 461.57 505.929 462.073C507.026 462.576 507.968 463.313 508.669 464.217C509.371 465.122 509.811 466.167 509.951 467.26C510.092 468.353 509.927 469.46 509.473 470.482C508.917 471.702 507.971 472.749 506.752 473.493C505.534 474.236 504.097 474.644 502.62 474.666C501.144 474.687 499.693 474.321 498.448 473.612C497.204 472.904 496.22 471.885 495.62 470.682ZM499.93 462.748C498.753 463.189 497.75 463.933 497.049 464.884C496.347 465.835 495.978 466.95 495.99 468.088C496.001 469.226 496.392 470.336 497.112 471.275C497.833 472.215 498.85 472.942 500.036 473.365C501.221 473.788 502.521 473.887 503.769 473.649C505.018 473.412 506.159 472.849 507.047 472.031C507.936 471.214 508.532 470.18 508.76 469.06C508.987 467.94 508.836 466.785 508.325 465.742C507.648 464.359 506.388 463.27 504.817 462.709C503.245 462.149 501.49 462.163 499.93 462.748Z" fill="#0F151C"/>
<path d="M523.33 483C522.127 483.001 520.947 482.676 519.915 482.059C518.882 481.443 518.036 480.558 517.465 479.499C516.894 478.44 516.62 477.246 516.672 476.043C516.725 474.841 517.101 473.675 517.762 472.67C518.422 471.664 519.343 470.857 520.425 470.332C521.507 469.808 522.711 469.587 523.909 469.692C525.106 469.798 526.253 470.225 527.228 470.93C528.202 471.635 528.968 472.591 529.443 473.697C529.886 474.71 530.069 475.818 529.976 476.92C529.882 478.023 529.515 479.084 528.908 480.008C528.3 480.932 527.472 481.69 526.498 482.213C525.524 482.735 524.435 483.006 523.33 483ZM523.33 470.562C522.101 470.566 520.906 470.967 519.923 471.704C518.939 472.441 518.219 473.477 517.869 474.656C517.52 475.835 517.559 477.096 517.982 478.251C518.404 479.406 519.187 480.394 520.215 481.068C521.243 481.743 522.46 482.068 523.687 481.995C524.913 481.922 526.084 481.456 527.025 480.665C527.966 479.874 528.627 478.8 528.911 477.603C529.194 476.406 529.084 475.15 528.598 474.02C528.143 472.998 527.4 472.131 526.46 471.525C525.519 470.92 524.423 470.602 523.305 470.612L523.33 470.562Z" fill="#0F151C"/>
<path d="M505.016 490.741L520.681 453.355C520.699 453.289 520.731 453.229 520.775 453.176C520.82 453.124 520.876 453.081 520.94 453.051C521.003 453.021 521.073 453.003 521.144 453C521.215 452.998 521.286 453.009 521.352 453.034C521.418 453.059 521.477 453.097 521.527 453.145C521.576 453.194 521.614 453.252 521.638 453.315C521.662 453.378 521.671 453.446 521.665 453.513C521.659 453.58 521.638 453.645 521.604 453.704L505.939 491.09C505.88 491.19 505.784 491.267 505.669 491.306C505.554 491.345 505.428 491.342 505.315 491.299C505.202 491.257 505.109 491.176 505.054 491.073C504.999 490.971 504.985 490.852 505.016 490.741Z" fill="#0F151C"/>
<path d="M217.348 7.64832L203.695 14.0009L197.377 0.294986C197.36 0.237993 197.331 0.185347 197.292 0.140645C197.253 0.0959432 197.204 0.0602389 197.15 0.0359692C197.096 0.0116995 197.038 -0.000562446 196.979 1.98057e-05C196.919 0.000602057 196.861 0.0140146 196.808 0.0393427C196.754 0.0646709 196.707 0.101316 196.668 0.146778C196.63 0.192239 196.602 0.245445 196.587 0.302761C196.571 0.360076 196.567 0.420153 196.577 0.478885C196.586 0.537617 196.608 0.593621 196.641 0.643073L202.959 14.349L189.327 20.7233C189.267 20.7359 189.211 20.7618 189.162 20.7991C189.113 20.8364 189.074 20.8842 189.046 20.939C189.018 20.9937 189.002 21.0541 189 21.1157C188.998 21.1773 189.01 21.2385 189.035 21.2949C189.06 21.3512 189.097 21.4013 189.143 21.4415C189.19 21.4817 189.244 21.5109 189.304 21.527C189.363 21.5431 189.425 21.5457 189.485 21.5347C189.545 21.5236 189.602 21.4991 189.652 21.463L203.305 15.0887L209.623 28.8164C209.678 28.8986 209.76 28.9585 209.855 28.9849C209.95 29.0114 210.051 29.0028 210.14 28.9607C210.229 28.9185 210.3 28.8456 210.341 28.7553C210.381 28.6649 210.387 28.5631 210.359 28.4683L204.041 14.7624L217.673 8.38801C217.733 8.37546 217.789 8.34959 217.838 8.31229C217.887 8.27498 217.926 8.22719 217.954 8.1724C217.983 8.11762 217.998 8.05722 218 7.99564C218.002 7.93405 217.99 7.87284 217.965 7.81647C217.94 7.7601 217.903 7.71 217.857 7.66984C217.81 7.62968 217.756 7.60048 217.696 7.58436C217.637 7.56824 217.575 7.56562 217.515 7.57669C217.455 7.58775 217.398 7.61223 217.348 7.64832Z" fill="#0F151C"/>
<path d="M9.08957 391.631L0.0617742 372.874C0.0129728 372.776 -0.00749438 372.668 0.00244651 372.56C0.0123874 372.452 0.052384 372.349 0.118376 372.26C0.184367 372.172 0.274001 372.101 0.378176 372.056C0.48235 372.011 0.597359 371.992 0.711509 372.003L22.4261 374.037C22.5375 374.044 22.6447 374.079 22.7363 374.14C22.8279 374.2 22.9005 374.282 22.9461 374.379C22.9918 374.475 23.0089 374.581 22.9956 374.686C22.9823 374.79 22.9391 374.89 22.8706 374.973L10.1838 391.728C10.1232 391.819 10.0371 391.892 9.93489 391.94C9.83272 391.988 9.71855 392.008 9.60512 391.997C9.49169 391.987 9.38344 391.948 9.29241 391.883C9.20139 391.818 9.13117 391.731 9.08957 391.631ZM1.70319 373.197L9.77348 390.017L21.195 375.005L1.70319 373.197Z" fill="#0F151C"/>
<path d="M530.032 112.608C529.135 111.653 527.139 112.29 523.812 114.373C525.258 112.376 526.705 110.38 527.775 108.586C527.993 108.338 528.113 108.019 528.113 107.689C528.113 107.359 527.993 107.041 527.775 106.793C525.432 104.709 517.678 112.81 515.537 115.096C517.071 111.798 517.042 110.843 516.434 110.38C515.827 109.917 514.554 110.38 510.648 113.794C506.317 117.889 502.5 122.494 499.278 127.508C499.154 127.657 498.999 127.778 498.825 127.863C498.65 127.948 498.459 127.994 498.265 127.999C496.356 127.594 494.88 119.32 493.491 115.703C492.826 114.054 491.553 111.335 489.991 111.624C489.036 111.798 487.966 112.955 488.11 120.304C487.832 129.41 487.011 138.491 485.651 147.499C483.25 147.499 480.819 147.731 478.418 147.991C478.349 147.983 478.279 147.99 478.212 148.011C478.146 148.032 478.084 148.067 478.032 148.113C477.98 148.16 477.939 148.217 477.911 148.28C477.882 148.344 477.868 148.413 477.868 148.483L473.876 198.477C405.221 199.605 402.53 192.488 401.228 189.074C399.728 184.808 399.195 180.263 399.666 175.766C401.402 166.797 414.971 156.786 415.116 156.671C415.26 156.555 415.347 156.237 415.116 154.79C413.09 144.751 411.007 134.393 403.109 127.652C403.014 127.567 402.89 127.52 402.762 127.52C402.634 127.52 402.51 127.567 402.415 127.652C396.118 132.924 390.69 139.153 386.329 146.111C382.365 152.562 375.682 164.106 379.848 169.95C380.924 171.174 382.265 172.136 383.769 172.762C385.274 173.389 386.901 173.664 388.527 173.567C387.862 175.563 385.981 181.32 384.824 186.499C384.014 190.145 380.022 190.289 370.358 190.173C322.824 189.768 292.388 183.288 246.155 171.918C246.042 171.887 245.923 171.892 245.813 171.934C245.704 171.976 245.611 172.051 245.547 172.149L244.564 173.769C236.328 171.867 227.992 170.428 219.596 169.458C211.553 168.938 208.023 169.458 206.432 174.261C205.426 174.621 204.54 175.252 203.871 176.084C203.202 176.917 202.777 177.918 202.642 178.977C201.773 179.383 201.012 179.987 200.419 180.741C199.826 181.495 199.418 182.377 199.228 183.317C195.322 183.317 191.127 183.317 188.031 183.317C183.981 183.577 181.117 184.937 181.088 186.586C181.088 187.425 181.695 188.148 182.939 188.756L90.3581 182.97C90.1802 183.004 90.02 183.1 89.9048 183.24C89.7896 183.379 89.7266 183.555 89.7266 183.736C89.7266 183.917 89.7896 184.093 89.9048 184.233C90.02 184.373 90.1802 184.468 90.3581 184.503L204.436 194.803C207.524 198.747 211.841 201.548 216.703 202.759C223.689 204.711 231.024 205.077 238.17 203.829C238.372 205.015 238.604 206.173 238.922 207.359C238.943 207.454 238.989 207.541 239.055 207.612C239.122 207.683 239.205 207.736 239.298 207.764C281.741 218.208 307.693 224.226 346.548 226.251C345.044 248.879 345.722 271.598 348.573 294.096C323.012 288.212 297.076 284.094 270.949 281.771C263.919 281.192 256.917 283.187 251.247 287.384C223.36 307.89 196.526 329.79 170.846 353.001C170.771 353.101 170.73 353.223 170.73 353.348C170.73 353.473 170.771 353.595 170.846 353.695C171.569 354.881 172.321 356.067 173.103 357.283C158.29 371.488 117.091 398.51 119.377 403.573C121.662 408.636 146.948 401.808 161.703 401.808C165.889 401.85 170.056 401.245 174.057 400.015C179.265 397.903 185.63 387.574 193.181 380.659C195.033 382.366 196.971 384.044 198.967 385.693C199.07 385.776 199.198 385.82 199.329 385.82C199.461 385.82 199.588 385.776 199.691 385.693C222.445 365.755 246.768 347.682 272.425 331.649C289.082 333.253 305.55 336.43 321.609 341.139C314.164 346.52 307.017 352.162 300.17 358.064C292.892 364.31 287.577 372.53 284.865 381.73C276.63 410.285 270.642 439.44 266.957 468.93C266.942 469.051 266.968 469.174 267.031 469.279C267.094 469.383 267.19 469.464 267.304 469.508C269.647 470.318 271.991 471.071 274.363 471.765C271.47 492.017 255.818 538.742 260.736 541.201C265.655 543.66 281.48 522.656 292.995 513.629C296.343 511.104 299.272 508.067 301.675 504.631C304.568 499.8 303.179 487.272 304.741 477.378C307.635 477.667 310.846 477.898 313.913 477.956C314.045 477.958 314.173 477.912 314.274 477.827C314.375 477.742 314.442 477.624 314.463 477.493C317.635 449.812 323.646 422.531 332.4 396.08C407.912 360.205 401.836 363.127 403.196 362.403C438.955 342.961 423.274 297.886 422.349 295.282C423.737 272.137 425.676 254.199 430.826 237.187C450.12 238.95 469.518 239.289 488.862 238.2C494.316 237.702 499.417 235.286 503.257 231.382C507.098 227.478 509.429 222.339 509.838 216.877L514.901 151.81C514.902 151.691 514.867 151.574 514.8 151.476C514.732 151.377 514.636 151.302 514.525 151.26C513.773 151.058 511.371 150.335 507.234 149.496C507.234 147.007 507.465 145.04 507.581 143.333C509.577 137.825 512.848 132.868 517.129 128.867C517.418 128.578 527.313 117.96 530.09 114.402C530.294 114.144 530.4 113.822 530.39 113.494C530.379 113.166 530.252 112.852 530.032 112.608ZM488.862 120.39C488.862 113.157 489.817 112.839 489.875 112.839C489.933 112.839 491.148 113.707 492.161 116.253C493.781 120.361 495.054 128.867 497.947 129.243C493.944 135.01 490.514 141.153 487.705 147.586H486.49C487.852 138.58 488.645 129.497 488.862 120.39ZM417.517 197.696L384.709 238.2C386.994 219.944 389.829 202.469 391.797 194.224C401.344 209.644 400.65 208.69 401.084 208.69C401.518 208.69 400.505 209.731 411.499 196.481C413.264 197.03 415.231 197.406 417.517 197.696ZM400.997 191.475C402.299 193.211 404.845 194.918 410.371 196.336L401.228 207.33L392.549 193.443C395.474 193.436 398.361 192.773 400.997 191.504V191.475ZM387.746 178.34L393.243 173.104C393.307 173.017 393.343 172.913 393.348 172.805C393.353 172.697 393.326 172.59 393.27 172.497C393.215 172.405 393.133 172.331 393.036 172.284C392.938 172.238 392.829 172.221 392.723 172.236C392.723 172.236 383.638 173.943 380.427 169.343C377.215 164.743 381.555 156.121 384.448 151.26C388.267 144.867 391.941 141.887 394.806 142.87C398.277 144.056 400.216 150.624 399.579 155.484C399.377 157.162 400.447 158.378 403.601 156.323C408.027 153.43 410.342 160.953 401.865 164.164C400.447 164.714 399.145 168.851 398.769 170.529C397.479 177.206 398.039 184.11 400.389 190.492C397.84 191.879 394.947 192.51 392.052 192.31C389.156 192.11 386.378 191.088 384.043 189.363C385.692 187.946 385.056 187.194 387.746 178.369V178.34ZM383.117 190.087C385.28 191.752 387.827 192.847 390.524 193.269L378.951 205.883L373.309 191.418C376.635 191.719 379.986 191.274 383.117 190.116V190.087ZM372.094 191.389L378.199 207.098C378.238 207.182 378.296 207.255 378.369 207.312C378.441 207.368 378.527 207.407 378.617 207.424C378.708 207.441 378.801 207.436 378.889 207.409C378.978 207.383 379.058 207.336 379.125 207.272L390.495 194.803C388.556 203.308 385.837 220.118 383.638 237.737L366.597 191.446L372.094 191.389ZM237.996 202.788C230.98 204.083 223.759 203.726 216.905 201.746C210.193 200.01 204.58 194.716 204.898 193.067C204.898 192.546 206.142 192.633 206.548 192.691C210.779 193.5 214.878 194.893 218.728 196.828C218.858 196.893 219.009 196.904 219.148 196.858C219.286 196.811 219.4 196.712 219.465 196.582C219.531 196.451 219.541 196.3 219.495 196.162C219.449 196.024 219.35 195.909 219.22 195.844C210.366 191.215 200.211 190.55 190.288 189.566C183.46 188.9 181.608 187.454 181.608 186.673C181.608 185.892 183.72 184.705 187.395 184.474C194.523 184.203 201.66 184.319 208.775 184.821C209.47 184.821 209.614 183.809 208.775 183.722C207.415 183.722 203.712 183.403 199.546 183.317C200.674 179.787 202.786 178.774 211.119 179.556C211.263 179.564 211.406 179.519 211.518 179.428C211.631 179.337 211.705 179.207 211.726 179.064C211.734 178.991 211.728 178.918 211.707 178.849C211.687 178.779 211.653 178.714 211.607 178.657C211.561 178.601 211.505 178.554 211.441 178.519C211.377 178.485 211.307 178.463 211.234 178.456C208.541 178.028 205.798 178.028 203.105 178.456C204.002 175.303 206.432 173.682 215.082 174.695C215.224 174.703 215.362 174.657 215.47 174.565C215.578 174.474 215.646 174.344 215.661 174.203C215.669 174.131 215.663 174.058 215.642 173.988C215.622 173.918 215.588 173.853 215.542 173.797C215.496 173.74 215.44 173.693 215.376 173.659C215.312 173.624 215.241 173.603 215.169 173.596C212.445 173.201 209.677 173.201 206.953 173.596C208.197 170.442 210.945 169.777 218.728 170.297C226.969 171.243 235.151 172.653 243.233 174.521C238.372 183.092 236.528 193.045 237.996 202.788ZM348.168 219.886C348.176 219.798 348.162 219.709 348.128 219.627C348.094 219.545 348.04 219.472 347.972 219.415C347.904 219.358 347.823 219.319 347.736 219.3C347.649 219.281 347.559 219.284 347.474 219.308L331.359 224.139C300.546 221.449 276.388 215.778 239.877 206.78C238.5 201.078 238.303 195.154 239.298 189.373C240.293 183.592 242.459 178.075 245.663 173.162C288.424 183.664 320.22 190.521 365.44 191.302L383.32 240.052C381.119 255.979 379.921 272.029 379.732 288.107C369.453 287.18 359.112 287.18 348.833 288.107C346.38 265.443 346.157 242.594 348.168 219.886ZM173.508 399.002C169.628 400.146 165.603 400.721 161.559 400.709C148.192 400.709 121.894 406.871 120.216 403.11C120.216 403.11 120.216 402.3 121.98 400.217C126.928 401.172 138.471 399.436 144.75 398.597C170.065 395.212 169.515 397.266 178.397 395.183C177.015 396.744 175.357 398.039 173.508 399.002ZM188.494 383.697C177.014 382.013 165.907 378.372 155.657 372.935C161.703 368.277 169.023 362.49 173.565 358.179C178.903 366.162 185.178 373.475 192.255 379.965C191.127 380.949 189.825 382.279 188.523 383.697H188.494ZM272.193 330.55C272.143 330.528 272.089 330.517 272.034 330.517C271.98 330.517 271.925 330.528 271.875 330.55C246.229 346.54 221.915 364.575 199.17 384.478C195.116 381.139 191.252 377.574 187.597 373.803C210.1 354.326 233.813 336.295 258.596 319.816C264.369 315.907 271.411 314.335 278.298 315.419C299.034 318.573 319.556 322.998 339.749 328.669C333.962 332.372 328.234 336.23 322.563 340.242C306.14 335.374 289.279 332.127 272.222 330.55H272.193ZM268.027 468.64C271.716 439.358 277.675 410.407 285.849 382.048C288.512 373.051 293.716 365.014 300.836 358.903C320.227 342.307 341.422 327.944 364.022 316.084C364.097 316.057 364.164 316.014 364.22 315.958C364.276 315.902 364.319 315.835 364.347 315.761C364.375 315.687 364.387 315.608 364.381 315.53C364.376 315.451 364.353 315.374 364.315 315.305C364.277 315.235 364.225 315.175 364.162 315.128C364.099 315.08 364.026 315.047 363.949 315.031C363.871 315.014 363.792 315.014 363.714 315.031C363.637 315.048 363.565 315.082 363.502 315.129C355.787 319.141 348.322 323.433 341.109 328.004C320.558 322.195 299.668 317.664 278.558 314.435C271.399 313.341 264.09 314.972 258.075 319.006C233.238 335.525 209.476 353.605 186.932 373.137C181.212 367.171 176.167 360.593 171.887 353.521C197.455 330.432 224.163 308.638 251.912 288.223C257.364 284.187 264.107 282.293 270.863 282.899C297.16 285.231 323.262 289.398 348.978 295.369C349.064 295.388 349.154 295.386 349.239 295.364C349.325 295.341 349.404 295.298 349.469 295.238C349.534 295.179 349.584 295.104 349.615 295.021C349.645 294.938 349.655 294.849 349.643 294.761C349.412 292.968 349.18 291.116 348.949 289.206C367.845 287.779 386.848 288.957 405.424 292.707C405.134 295.803 404.18 312.005 415.26 320.829C384.847 335.86 355.67 353.273 328.003 372.906C318.934 379.462 312.299 388.845 309.139 399.581C302.141 424.308 296.92 449.504 293.516 474.976C284.867 473.58 276.351 471.46 268.056 468.64H268.027ZM300.546 504.197C298.263 507.508 295.47 510.437 292.272 512.877C281.828 521.065 264.787 542.3 261.199 540.362C261.199 540.362 260.621 539.957 260.823 536.948C268.432 532.898 283.187 514.555 293.921 506.136C296.903 503.777 299.628 501.11 302.051 498.18C301.965 500.264 301.463 502.31 300.575 504.197H300.546ZM302.89 482.904C292.834 488.688 281.851 492.682 270.429 494.708C272.28 487.33 274.45 478.332 275.347 472.083C284.55 474.705 293.972 476.486 303.497 477.407C303.266 478.911 303.092 480.734 302.919 482.904H302.89ZM402.328 361.68C401.489 362.114 377.967 373.253 331.619 395.299C331.539 395.328 331.467 395.374 331.407 395.434C331.347 395.494 331.301 395.566 331.272 395.646C322.499 422.066 316.469 449.318 313.276 476.973C307.047 476.736 300.836 476.147 294.673 475.208C298.078 449.793 303.299 424.654 310.296 399.986C313.376 389.5 319.86 380.338 328.726 373.947C356.5 354.224 385.793 336.733 416.331 321.639C417.902 322.811 419.612 323.782 421.423 324.532C421.489 324.559 421.56 324.573 421.632 324.572C421.704 324.57 421.774 324.554 421.839 324.524C421.905 324.495 421.963 324.452 422.011 324.398C422.059 324.345 422.095 324.282 422.117 324.214C422.166 324.083 422.164 323.938 422.11 323.809C422.056 323.68 421.955 323.577 421.828 323.519C405.192 316.865 406.234 296.758 406.581 293.112C411.297 293.98 416.186 294.993 421.191 296.005C422.58 299.795 436.93 343.019 402.357 361.68H402.328ZM513.657 152.157L508.681 216.646C508.307 221.845 506.092 226.74 502.433 230.453C498.774 234.165 493.911 236.45 488.718 236.898C466.165 238.23 443.541 237.698 421.076 235.307C420.972 235.29 420.865 235.304 420.77 235.349C420.674 235.394 420.594 235.466 420.541 235.557C420.488 235.648 420.463 235.753 420.471 235.858C420.479 235.963 420.518 236.064 420.584 236.146L427.18 246.098C423.797 262.139 421.774 278.438 421.133 294.819C407.903 291.712 394.477 289.508 380.947 288.223C381.112 272.193 382.301 256.19 384.506 240.312L418.761 197.898C434.413 200.01 458.397 199.952 474.136 199.663C474.397 199.663 474.628 199.432 474.686 199.055L478.678 149.148C490.433 147.973 502.304 148.993 513.686 152.157H513.657ZM506.048 149.264C500.381 148.19 494.63 147.628 488.862 147.586C493.134 138.329 498.454 129.592 504.717 121.548C506.6 119.052 508.733 116.755 511.082 114.691C512.367 113.317 513.885 112.181 515.566 111.335C515.175 113.145 514.48 114.876 513.512 116.456C507.755 127.97 506.655 136.708 506.221 149.264H506.048ZM507.784 139.832C508.454 132.69 510.363 125.72 513.425 119.233C514.814 117.092 522.568 108.818 526.068 107.66C526.647 107.487 527.139 107.487 526.821 108.008C524.246 112.029 519.298 118.192 516.955 122.068C513.597 127.825 510.545 133.754 507.813 139.832H507.784ZM529.106 113.794C525.808 118.018 515.017 129.359 512.905 131.876C515.405 126.689 518.389 121.749 521.816 117.121C528.47 112.318 529.714 113.013 529.135 113.794H529.106Z" fill="#0F151C"/>
<defs>
<linearGradient id="paint0_linear_5_1399" x1="376.234" y1="148.043" x2="376.234" y2="295.485" gradientUnits="userSpaceOnUse">
<stop stop-color="#806EE3"/>
<stop offset="1" stop-color="#318FFD"/>
</linearGradient>
</defs>
</svg>
