<svg width="750" height="737" viewBox="0 0 750 737" fill="none" xmlns="http://www.w3.org/2000/svg">
<g filter="url(#filter0_d_180_20)">
<rect x="142.707" y="57.5909" width="616.333" height="499.931" rx="58" transform="rotate(10 142.707 57.5909)" fill="url(#paint0_linear_180_20)"/>
<path d="M509.543 628.232L573.052 638.906C588.937 641.599 605.241 637.88 618.386 628.565C631.531 619.25 640.443 605.099 643.166 589.22L701.069 232.123L384.405 178.981C384.238 178.925 384.096 178.811 384.007 178.659C383.918 178.506 383.886 178.327 383.919 178.153C383.952 177.98 384.047 177.824 384.185 177.715C384.324 177.606 384.498 177.551 384.674 177.561L701.3 230.741L703.911 214.614C706.626 198.718 702.918 182.394 693.6 169.231C684.283 156.069 670.12 147.146 654.225 144.424L200.405 68.2813C192.529 66.9095 184.46 67.1068 176.661 68.8618C168.862 70.6167 161.486 73.8948 154.957 78.5079C148.428 83.1209 142.875 88.9781 138.616 95.7431C134.356 102.508 131.475 110.048 130.137 117.929L127.45 134.402L344.51 170.841C344.704 170.841 344.89 170.918 345.026 171.055C345.163 171.191 345.24 171.377 345.24 171.571C345.24 171.764 345.163 171.95 345.026 172.086C344.89 172.223 344.704 172.3 344.51 172.3C344.126 172.3 343.589 172.3 127.334 135.822L101.109 297.706L100.226 293.866L128.909 117.545C131.704 101.308 140.836 86.8457 154.294 77.3405C167.753 67.8354 184.436 64.0657 200.674 66.8606L654.455 143.08C670.709 145.869 685.193 154.99 694.73 168.444C704.268 181.897 708.08 198.584 705.332 214.844L644.664 589.489C641.875 605.742 632.753 620.227 619.3 629.764C605.846 639.302 589.159 643.114 572.899 640.365L509.389 629.691C509.196 629.67 509.018 629.574 508.896 629.423C508.773 629.272 508.716 629.078 508.736 628.884C508.757 628.691 508.853 628.513 509.004 628.391C509.156 628.269 509.349 628.211 509.543 628.232Z" fill="#0F151C"/>
<path d="M68.124 492.381L99.1875 300.778L100.071 304.618L69.5446 492.765C66.8634 508.65 70.5931 524.949 79.9153 538.086C89.2375 551.224 103.391 560.126 119.269 562.841L486.887 624.392C487.05 624.447 487.189 624.559 487.278 624.707C487.367 624.855 487.401 625.029 487.373 625.2C487.346 625.37 487.259 625.526 487.127 625.638C486.996 625.75 486.829 625.812 486.656 625.813L119.001 564.07C102.767 561.27 88.3026 552.158 78.7689 538.724C69.2351 525.291 65.4079 508.629 68.124 492.381Z" fill="#3B29AB"/>
<path d="M120.804 384.177L101.605 299.396L156.398 301.392L176.058 319.362C169.173 320.826 162.484 323.094 156.13 326.12C153.437 327.266 150.967 328.878 148.834 330.882C145.839 334.299 161.851 329.384 169.761 328.539C168.197 329.411 166.762 330.496 165.499 331.765C163.464 334.069 172.103 330.958 179.974 329.653C181.465 329.269 183.01 329.139 184.544 329.269C176.864 332.686 165.153 339.176 162.35 344.167C158.971 350.234 176.25 338.216 187.424 337.87C180.32 341.172 172.602 345.55 169.799 350.81C165.959 357.722 179.706 345.089 196.063 344.551C180.435 353.997 173.024 361.792 195.295 352.231C199.361 350.392 203.711 349.262 208.158 348.89L252.699 389.668C110.936 384.101 120.919 384.677 120.804 384.177Z" fill="url(#paint1_linear_180_20)"/>
<path d="M85.3627 239.918L117.809 382.795L36.406 296.708L3.99847 154.023L85.3627 239.918Z" fill="#E0DBFF"/>
<path d="M475.713 463.123C483.196 471.416 493.659 476.407 504.813 477.004C515.967 477.601 526.904 473.756 535.229 466.31L607.109 401.687C598.328 378.556 581.243 359.528 559.189 348.314L511.384 391.281C478.939 309.341 444.342 302.967 433.207 293.444C411.052 310.915 400.339 317.443 371.31 322.857C378.529 394.046 374.728 476.715 385.94 523.599C388.601 534.63 393.957 544.828 401.529 553.28L452.675 610.262C475.324 600.515 494.191 583.67 506.431 562.265L457.935 508.508L446.147 430.062C352.611 325.928 383.29 360.064 475.713 463.123Z" fill="url(#paint2_linear_180_20)"/>
<path d="M147.644 330.152C149.897 328.067 152.495 326.391 155.323 325.199C165.537 320.169 167.764 320.054 271.245 294.903L300.389 270.713C299.506 267.142 299.736 264.838 301.119 263.916C301.503 263.648 299.506 265.376 366.394 205.053C367.699 195.733 366.858 186.238 363.937 177.292C343.394 184.51 338.019 166.425 342.281 145.153C341.237 144.478 340.357 143.58 339.704 142.522C339.051 141.465 338.641 140.275 338.505 139.04C338.369 137.804 338.51 136.554 338.917 135.38C339.324 134.206 339.988 133.137 340.86 132.252C339.615 131.462 338.6 130.358 337.918 129.05C337.237 127.743 336.913 126.278 336.979 124.805C337.045 123.332 337.499 121.903 338.295 120.662C339.092 119.42 340.201 118.412 341.513 117.737C340.598 116.616 339.988 115.277 339.743 113.851C339.497 112.424 339.623 110.959 340.11 109.596C340.596 108.233 341.426 107.018 342.52 106.07C343.613 105.122 344.933 104.472 346.351 104.183C345.892 102.86 345.774 101.443 346.008 100.062C346.241 98.6812 346.819 97.3816 347.688 96.2833C348.556 95.185 349.688 94.3233 350.978 93.7779C352.268 93.2325 353.674 93.021 355.067 93.1629C355.064 91.7683 355.408 90.395 356.071 89.1677C356.733 87.9404 357.691 86.8979 358.858 86.1349C360.025 85.372 361.365 84.9128 362.755 84.799C364.145 84.6852 365.541 84.9204 366.817 85.4834C367.229 84.0997 367.991 82.8455 369.028 81.8416C370.066 80.8376 371.345 80.1178 372.741 79.7513C374.138 79.3848 375.605 79.3841 377.002 79.7491C378.399 80.1142 379.678 80.8327 380.717 81.8356C381.565 80.576 382.724 79.5565 384.082 78.8757C385.44 78.1949 386.95 77.8758 388.467 77.9491C389.984 78.0225 391.457 78.4858 392.742 79.2944C394.028 80.103 395.084 81.2296 395.807 82.5652C397.514 81.2498 399.66 80.6399 401.804 80.8614C403.947 81.0829 405.924 82.1189 407.326 83.7555C407.648 82.1391 408.35 80.6226 409.375 79.332C410.4 78.0414 411.718 77.0137 413.22 76.3342C414.721 75.6548 416.363 75.3431 418.009 75.4251C419.656 75.507 421.258 75.9803 422.685 76.8055C423.654 75.0185 425.109 73.5417 426.881 72.5453C428.653 71.5489 430.671 71.0735 432.702 71.1739C434.732 71.2742 436.693 71.9462 438.358 73.1124C440.024 74.2786 441.326 75.8916 442.114 77.7655C443.855 76.9082 445.804 76.5628 447.734 76.7694C449.664 76.9761 451.496 77.7263 453.016 78.9329C454.536 80.1395 455.683 81.7528 456.322 83.5853C456.962 85.4178 457.068 87.3942 456.628 89.2847C458.555 89.6682 460.332 90.5954 461.749 91.9565C463.166 93.3177 464.164 95.0561 464.624 96.9662C465.084 98.8763 464.988 100.878 464.347 102.735C463.706 104.593 462.546 106.227 461.006 107.447C462.468 108.778 463.515 110.504 464.018 112.417C464.522 114.329 464.462 116.347 463.845 118.226C463.228 120.105 462.081 121.766 460.541 123.007C459.002 124.249 457.136 125.019 455.169 125.225C455.415 127.157 455.107 129.119 454.282 130.884C453.456 132.648 452.147 134.142 450.506 135.191C448.865 136.241 446.96 136.803 445.013 136.813C443.065 136.823 441.154 136.28 439.503 135.247C438.814 136.612 437.824 137.802 436.606 138.727C435.389 139.651 433.976 140.287 432.476 140.584C432.793 142.716 432.275 144.887 431.03 146.647C429.786 148.406 427.911 149.618 425.795 150.03C426.239 151.357 426.343 152.774 426.098 154.152C425.852 155.53 425.266 156.824 424.391 157.916C423.516 159.009 422.382 159.864 421.091 160.405C419.8 160.946 418.394 161.154 417.002 161.011C417.002 162.412 416.651 163.791 415.982 165.022C415.313 166.253 414.348 167.297 413.173 168.06C411.998 168.823 410.651 169.28 409.254 169.39C407.858 169.501 406.456 169.26 405.176 168.691C404.757 170.077 403.987 171.331 402.939 172.33C401.891 173.329 400.602 174.039 399.198 174.391C397.793 174.743 396.322 174.725 394.926 174.338C393.531 173.952 392.26 173.21 391.237 172.185C389.383 174.256 386.925 175.693 384.211 176.293C392.389 190.884 407.48 203.978 414.122 217.993C431.401 254.432 424.682 266.527 433.782 292.83C448.296 303.235 479.859 311.337 511.614 389.899L558.574 347.93C558.722 347.798 558.913 347.725 559.111 347.725C559.31 347.725 559.501 347.798 559.649 347.93C564.652 350.471 569.42 353.452 573.894 356.838C598.123 337.64 600.043 337.102 619.702 315.638C619.781 315.545 619.883 315.476 619.998 315.435C620.113 315.395 620.236 315.385 620.355 315.407C660.365 320.745 706.634 334.491 726.524 344.09C726.66 344.138 726.777 344.226 726.86 344.343C726.944 344.46 726.988 344.6 726.988 344.743C726.988 344.887 726.944 345.027 726.86 345.144C726.777 345.261 726.66 345.349 726.524 345.396C697.168 356.586 665.686 361.085 634.37 358.566L601.387 388.209C603.643 392.147 605.644 396.225 607.377 400.419C607.564 400.848 607.609 401.325 607.506 401.781C607.402 402.237 607.155 402.648 606.801 402.954L535.766 466.77C527.302 474.36 516.174 478.282 504.822 477.678C493.471 477.073 482.822 471.991 475.213 463.545L447.106 432.251L458.625 508.124L506.238 561.19C506.503 561.475 506.669 561.839 506.711 562.227C506.752 562.614 506.667 563.005 506.468 563.34C503.986 567.489 501.282 571.501 498.366 575.358C523.478 606.076 542.293 623.509 542.485 624.584C546.555 648.582 544.597 703.222 536.918 728.257C536.877 728.39 536.8 728.508 536.696 728.598C536.591 728.688 536.462 728.747 536.326 728.767C536.189 728.787 536.049 728.768 535.923 728.712C535.796 728.655 535.689 728.564 535.612 728.449C515.645 695.274 508.427 674.693 497.791 638.445L466.689 603.888C462.536 606.4 458.226 608.645 453.787 610.607C453.456 610.744 453.092 610.776 452.742 610.701C452.393 610.625 452.074 610.445 451.829 610.185L400.99 553.587C393.337 545.051 387.927 534.746 385.247 523.599C374.112 476.984 377.568 393.354 370.618 322.933L363.323 309.763L353.646 317.942C352.149 319.286 348.271 317.519 346.159 315.407L318.282 336.603C311.842 341.308 304.257 344.198 296.319 344.974C295.436 344.974 207.506 347.7 195.602 352.883C191.39 355.078 186.853 356.582 182.163 357.338C181.05 357.338 180.858 356.915 180.666 356.608C179.591 354.496 187.27 348.928 193.183 345.396C179.591 347.009 170.145 355.264 168.34 353.075C167.726 352.423 168.34 351.271 168.801 350.272C172.431 345.271 177.301 341.301 182.931 338.753C174.484 340.711 165.038 346.433 162.12 346.433C160.929 346.433 160.2 345.511 161.275 343.63C164.155 338.484 172.794 333.646 180.282 330.19C174.33 331.189 167.956 333.032 165.614 333.032C163.963 333.032 163.617 331.995 164.539 330.92C165.056 330.348 165.621 329.822 166.228 329.346C160.315 330.383 152.328 332.456 149.18 332.456C146.953 332.571 146.646 331.304 147.644 330.152ZM303.576 263.648C307.992 264.723 314.404 271.98 317.322 275.512L318.743 274.245C318.743 273.823 317.054 268.639 319.473 267.103L360.52 230.05C363.126 222.679 364.978 215.063 366.049 207.319L303.576 263.648ZM383.174 177.407C377.645 167.731 374.727 155.712 380.333 146.382C380.372 146.307 380.426 146.241 380.493 146.188C380.559 146.135 380.635 146.097 380.717 146.075C390.47 142.849 386.476 131.56 379.987 135.976C377.683 137.589 374.65 139.086 373.959 136.322C373.851 135.207 373.363 134.163 372.576 133.365C371.784 134.609 370.677 135.621 369.367 136.3C368.058 136.978 366.592 137.298 365.119 137.228C363.646 137.158 362.217 136.7 360.978 135.9C359.739 135.1 358.733 133.987 358.062 132.674C356.576 133.867 354.727 134.518 352.821 134.518C350.915 134.518 349.066 133.867 347.58 132.674C342.933 143.963 338.94 166.348 347.58 174.527C352.187 178.789 359.56 178.367 369.543 173.183C370.004 172.914 370.925 173.183 370.311 174.566C369.697 175.948 368.967 177.484 366.932 181.938C368.155 187.442 368.633 193.086 368.353 198.718C374.112 206.819 385.324 197.988 392.62 191.038C389.134 186.737 385.977 182.181 383.174 177.407ZM631.529 359.027C624.85 348.436 616.734 338.822 607.415 330.459C597.19 340.062 586.393 349.038 575.085 357.338C585.406 365.381 594.076 375.342 600.619 386.673L631.529 359.027ZM498.366 636.986C508.977 629.229 518.35 619.907 526.166 609.34C515.684 598.051 505.969 586.916 497.56 576.664C489.257 587.116 479.279 596.121 468.032 603.312L498.366 636.986ZM386.63 523.291C389.241 534.203 394.518 544.296 401.989 552.666L436.047 590.602C457.703 580.502 476.099 564.541 489.151 544.525C455.361 506.896 457.051 508.931 457.012 508.547L451.061 468.921L388.742 367.129C388.672 366.976 388.657 366.804 388.7 366.642C388.742 366.48 388.839 366.337 388.974 366.238C389.109 366.139 389.275 366.089 389.442 366.098C389.609 366.106 389.769 366.172 389.894 366.284L476.25 462.278C483.607 470.433 493.897 475.34 504.866 475.923C515.834 476.506 526.587 472.718 534.767 465.388L590.367 415.471C584.495 404.67 577.452 394.549 569.363 385.291C502.091 438.548 506.622 435.208 506.238 435.208C505.854 435.208 506.891 436.744 440.309 338.945C431.2 336.465 422.659 332.24 415.159 326.504C415.028 326.38 414.947 326.212 414.932 326.032C414.918 325.852 414.971 325.673 415.081 325.53C415.191 325.386 415.35 325.289 415.527 325.256C415.705 325.223 415.888 325.258 416.042 325.352C430.044 335.76 447.182 341.07 464.615 340.404C464.809 340.404 464.994 340.481 465.131 340.618C465.268 340.755 465.345 340.94 465.345 341.134C465.345 341.327 465.268 341.513 465.131 341.65C464.994 341.786 464.809 341.863 464.615 341.863C457.158 342.023 449.712 341.223 442.46 339.483L506.43 433.48L568.403 384.369C561.111 376.254 552.754 369.163 543.56 363.289L511.806 391.78C511.72 391.847 511.619 391.893 511.512 391.914C511.405 391.935 511.295 391.93 511.19 391.9C511.085 391.87 510.989 391.816 510.909 391.742C510.829 391.667 510.768 391.575 510.73 391.473C479.552 313.756 448.834 305.309 433.244 294.174C412.011 310.877 400.99 317.827 372.116 323.317C379.219 394.007 375.533 476.754 386.63 523.291ZM354.721 315.177L397.227 279.16C397.362 279.05 397.531 278.992 397.705 278.996C397.879 278.999 398.046 279.065 398.175 279.181C398.305 279.296 398.389 279.455 398.412 279.627C398.436 279.799 398.397 279.974 398.303 280.12C373.575 318.518 371.693 321.935 371.693 321.935C400.376 316.521 411.281 309.648 432.361 293.06C423.261 266.451 430.019 254.855 412.855 218.646C408.593 209.661 400.875 201.137 393.657 192.228C386.515 199.025 375.226 208.01 368.353 200.945C367.675 210.189 365.83 219.31 362.862 228.092L388.012 205.514C388.703 204.861 389.663 205.936 388.972 206.589L321.853 266.873C331.875 269.369 355.374 303.658 354.721 315.177ZM165.883 331.726C168.455 331.726 179.053 328.578 185.081 328.271C188.076 327.011 191.14 325.921 194.258 325.007C194.439 324.984 194.622 325.03 194.771 325.135C194.92 325.241 195.024 325.398 195.063 325.576C195.101 325.755 195.072 325.941 194.98 326.099C194.888 326.256 194.74 326.374 194.566 326.428C187.616 327.887 164.692 337.947 162.273 345.127C164.552 344.515 166.764 343.679 168.878 342.631C174.602 339.752 180.766 337.844 187.116 336.987C191.379 334.99 195.103 333.569 196.562 333.147C196.73 333.119 196.902 333.15 197.049 333.234C197.196 333.319 197.309 333.453 197.368 333.612C197.428 333.772 197.429 333.947 197.373 334.107C197.317 334.267 197.207 334.403 197.061 334.491C189.382 337.217 172.564 344.628 169.646 352.192C172.756 351.348 183.584 344.282 195.871 343.822L198.367 342.324C198.535 342.227 198.735 342.201 198.922 342.252C199.109 342.302 199.269 342.425 199.365 342.593C199.462 342.761 199.488 342.961 199.438 343.148C199.387 343.335 199.265 343.495 199.097 343.591C188.192 349.965 182.662 354.611 182.086 355.955C182.701 355.955 185.312 355.955 195.065 351.616C207.198 346.356 292.671 343.706 296.242 343.63C303.914 342.862 311.243 340.065 317.476 335.528L352.034 309.149C347.81 296.823 334.409 277.356 325.155 270.444L290.022 301.853C289.638 302.199 293.094 301.354 191.033 321.436C183.891 323.317 170.337 327.08 165.883 331.726ZM169.185 327.579C176.054 324.283 183.248 321.71 190.649 319.9L289.215 300.701L316.094 276.703C313.417 273.241 310.365 270.086 306.993 267.295L272.013 296.324C272.013 296.324 183.43 317.98 178.823 319.132C170.884 320.838 163.158 323.413 155.784 326.812C153.151 327.916 150.734 329.476 148.642 331.419C151.253 331.458 163.195 328.232 169.185 327.579Z" fill="#0F151C"/>
<path d="M276.928 138.011C280.003 138.006 283.012 137.122 285.602 135.462C288.191 133.803 290.252 131.438 291.541 128.647C292.831 125.855 293.295 122.752 292.879 119.705C292.464 116.658 291.186 113.794 289.196 111.449C287.206 109.104 284.588 107.378 281.649 106.472C278.71 105.567 275.573 105.52 272.609 106.339C269.645 107.157 266.976 108.806 264.918 111.091C262.86 113.376 261.498 116.201 260.993 119.235C260.607 121.547 260.731 123.916 261.355 126.176C261.979 128.435 263.088 130.532 264.605 132.319C266.121 134.107 268.01 135.542 270.138 136.525C272.266 137.508 274.583 138.015 276.928 138.011ZM288.447 113.59C289.807 115.496 290.677 117.708 290.979 120.031C291.28 122.353 291.005 124.713 290.177 126.904C289.349 129.094 287.993 131.047 286.231 132.588C284.468 134.13 282.353 135.214 280.072 135.743C277.791 136.272 275.414 136.231 273.153 135.623C270.891 135.015 268.815 133.859 267.107 132.257C265.399 130.655 264.112 128.657 263.36 126.439C262.609 124.221 262.415 121.852 262.797 119.542C263.267 116.759 264.554 114.179 266.492 112.129C268.431 110.078 270.935 108.649 273.687 108.024C276.439 107.399 279.315 107.605 281.949 108.617C284.584 109.628 286.859 111.399 288.485 113.706L288.447 113.59Z" fill="#0F151C"/>
<path d="M235.611 131.176C238.686 131.171 241.696 130.287 244.285 128.628C246.874 126.968 248.935 124.604 250.225 121.812C251.514 119.02 251.979 115.918 251.563 112.871C251.148 109.824 249.87 106.959 247.88 104.614C245.89 102.27 243.271 100.543 240.332 99.6374C237.393 98.7319 234.257 98.6856 231.293 99.5039C228.328 100.322 225.66 101.971 223.602 104.256C221.543 106.541 220.181 109.367 219.676 112.4C219.284 114.713 219.403 117.085 220.024 119.347C220.645 121.61 221.754 123.709 223.272 125.498C224.79 127.287 226.681 128.722 228.813 129.703C230.944 130.684 233.265 131.187 235.611 131.176ZM247.13 106.756C248.491 108.662 249.36 110.874 249.662 113.196C249.964 115.518 249.688 117.879 248.86 120.069C248.032 122.259 246.677 124.212 244.914 125.754C243.152 127.295 241.036 128.379 238.755 128.908C236.474 129.438 234.098 129.396 231.836 128.788C229.575 128.18 227.498 127.024 225.79 125.422C224.082 123.82 222.795 121.822 222.044 119.604C221.292 117.386 221.099 115.017 221.481 112.707C221.933 109.916 223.207 107.322 225.138 105.257C227.07 103.192 229.572 101.748 232.327 101.11C235.082 100.471 237.965 100.667 240.608 101.673C243.251 102.678 245.535 104.448 247.169 106.756H247.13Z" fill="#0F151C"/>
<path d="M177.67 105.45C178.191 102.304 179.633 99.3824 181.814 97.0555C183.995 94.7286 186.817 93.1007 189.923 92.3774C193.029 91.6541 196.28 91.8681 199.264 92.9921C202.249 94.1162 204.833 96.1 206.69 98.6926C208.547 101.285 209.594 104.37 209.698 107.558C209.803 110.745 208.959 113.892 207.275 116.6C205.591 119.309 203.142 121.457 200.237 122.773C197.332 124.09 194.102 124.515 190.955 123.996C188.863 123.656 186.858 122.906 185.056 121.788C183.255 120.671 181.692 119.208 180.457 117.485C179.222 115.762 178.34 113.811 177.862 111.746C177.384 109.68 177.318 107.541 177.67 105.45Z" fill="#0F151C"/>
<path d="M531.606 19.1338L542.432 11.4267L534.811 0.588478C534.772 0.501472 534.763 0.403469 534.787 0.310959C534.811 0.218449 534.866 0.137078 534.942 0.0805386C535.018 0.023999 535.111 -0.00425898 535.206 0.000520366C535.3 0.00529971 535.39 0.0428242 535.46 0.10678L543.082 11.0545L553.908 3.34729C554.341 3.01886 554.817 3.69762 554.384 4.02605L543.558 11.7113L551.179 22.659C551.223 22.7205 551.249 22.7927 551.254 22.8679C551.26 22.9432 551.245 23.0185 551.212 23.086C551.179 23.1535 551.128 23.2105 551.065 23.251C551.002 23.2915 550.929 23.3139 550.855 23.3159C550.53 23.3159 551.028 23.8632 542.887 12.3682C531.498 20.557 532.061 20.1629 531.931 20.1629C531.796 20.2065 531.65 20.194 531.524 20.1283C531.398 20.0626 531.303 19.9491 531.26 19.8126C531.217 19.6761 531.229 19.528 531.294 19.4007C531.359 19.2734 531.471 19.1774 531.606 19.1338Z" fill="#0F151C"/>
<path d="M253.66 529.781C254.044 529.781 254.005 529.781 310.335 512.271C310.456 512.211 310.558 512.118 310.629 512.002C310.701 511.887 310.738 511.754 310.738 511.619C310.738 511.483 310.701 511.35 310.629 511.235C310.558 511.12 310.456 511.026 310.335 510.966L262.837 477.944C262.68 477.873 262.504 477.86 262.338 477.907C262.173 477.954 262.029 478.057 261.933 478.2C261.836 478.342 261.793 478.514 261.811 478.685C261.829 478.856 261.907 479.015 262.03 479.134L308.107 511.311L253.468 528.398C253.377 528.411 253.29 528.441 253.211 528.488C253.132 528.534 253.063 528.596 253.007 528.669C252.952 528.742 252.912 528.825 252.889 528.914C252.865 529.002 252.86 529.095 252.873 529.185C252.885 529.276 252.916 529.364 252.962 529.443C253.008 529.522 253.07 529.591 253.143 529.646C253.216 529.701 253.299 529.742 253.388 529.765C253.477 529.788 253.569 529.793 253.66 529.781Z" fill="#0F151C"/>
<path d="M207.698 521.064L161.621 487.044L216.299 471.685C216.406 471.676 216.509 471.643 216.602 471.589C216.694 471.535 216.774 471.462 216.835 471.374C216.896 471.286 216.937 471.186 216.955 471.08C216.972 470.974 216.967 470.866 216.938 470.763C216.91 470.66 216.859 470.564 216.789 470.483C216.719 470.402 216.632 470.337 216.535 470.293C216.437 470.249 216.331 470.227 216.224 470.229C216.117 470.231 216.011 470.256 215.915 470.303C174.83 481.208 163.503 484.471 160.431 485.662C159.048 486.199 158.703 486.506 160.085 487.697C162.658 489.809 172.18 496.797 206.738 522.255C206.896 522.382 207.098 522.441 207.3 522.42C207.501 522.398 207.686 522.297 207.813 522.139C207.941 521.981 208 521.78 207.978 521.578C207.957 521.376 207.856 521.192 207.698 521.064Z" fill="#0F151C"/>
<path d="M246.248 550.63L225.629 450.106C225.591 449.918 225.482 449.753 225.324 449.645C225.166 449.537 224.972 449.496 224.784 449.53C224.593 449.576 224.428 449.693 224.32 449.857C224.213 450.021 224.173 450.22 224.208 450.413L244.827 550.938C244.881 551.112 244.999 551.26 245.156 551.352C245.314 551.444 245.5 551.473 245.678 551.435C245.857 551.396 246.014 551.292 246.12 551.143C246.225 550.994 246.271 550.811 246.248 550.63Z" fill="#0F151C"/>
</g>
<defs>
<filter id="filter0_d_180_20" x="0" y="0" width="744.496" height="736.775" filterUnits="userSpaceOnUse" color-interpolation-filters="sRGB">
<feFlood flood-opacity="0" result="BackgroundImageFix"/>
<feColorMatrix in="SourceAlpha" type="matrix" values="0 0 0 0 0 0 0 0 0 0 0 0 0 0 0 0 0 0 127 0" result="hardAlpha"/>
<feOffset dy="4"/>
<feGaussianBlur stdDeviation="2"/>
<feComposite in2="hardAlpha" operator="out"/>
<feColorMatrix type="matrix" values="0 0 0 0 0 0 0 0 0 0 0 0 0 0 0 0 0 0 0.25 0"/>
<feBlend mode="normal" in2="BackgroundImageFix" result="effect1_dropShadow_180_20"/>
<feBlend mode="normal" in="SourceGraphic" in2="effect1_dropShadow_180_20" result="shape"/>
</filter>
<linearGradient id="paint0_linear_180_20" x1="450.874" y1="57.5909" x2="450.874" y2="557.522" gradientUnits="userSpaceOnUse">
<stop stop-color="white"/>
<stop offset="1" stop-color="white" stop-opacity="0"/>
</linearGradient>
<linearGradient id="paint1_linear_180_20" x1="177.152" y1="299.396" x2="177.152" y2="389.668" gradientUnits="userSpaceOnUse">
<stop stop-color="#806EE3"/>
<stop offset="1" stop-color="#318FFD"/>
</linearGradient>
<linearGradient id="paint2_linear_180_20" x1="489.21" y1="293.444" x2="489.21" y2="610.262" gradientUnits="userSpaceOnUse">
<stop stop-color="#806EE3"/>
<stop offset="1" stop-color="#318FFD"/>
</linearGradient>
</defs>
</svg>
