<svg width="39" height="59" viewBox="0 0 39 59" fill="none" xmlns="http://www.w3.org/2000/svg">
<path d="M34.5052 1.4054H5.41332C3.35345 1.4054 1.68359 3.07525 1.68359 5.13513V53.6216C1.68359 55.6815 3.35345 57.3513 5.41332 57.3513H34.5052C36.5651 57.3513 38.2349 55.6815 38.2349 53.6216V5.13513C38.2349 3.07525 36.5651 1.4054 34.5052 1.4054Z" stroke="#0F151C" stroke-width="1.5"/>
<path d="M1.68359 47.4097H38.2349" stroke="#0F151C" stroke-width="1.5"/>
<path d="M18.0957 52.5028H21.535" stroke="#0F151C" stroke-width="1.5" stroke-linecap="round"/>
<path d="M17.3884 15.1465H6.5918V25.9431H17.3884V15.1465Z" stroke="#7051FF" stroke-width="1.5" stroke-linejoin="round"/>
<path d="M33.0915 15.1465H22.2949V25.9431H33.0915V15.1465Z" stroke="#0F151C" stroke-width="1.5" stroke-linejoin="round"/>
<path d="M17.3884 30.8506H6.5918V41.6472H17.3884V30.8506Z" stroke="#0F151C" stroke-width="1.5" stroke-linejoin="round"/>
<path d="M33.0915 30.8506H22.2949V41.6472H33.0915V30.8506Z" stroke="#7051FF" stroke-width="1.5" stroke-linejoin="round"/>
<path d="M16.6016 7.00024H23.663" stroke="#0F151C" stroke-width="1.5" stroke-linecap="round"/>
</svg>
