<svg width="28" height="29" viewBox="0 0 28 29" fill="none" xmlns="http://www.w3.org/2000/svg">
<g clip-path="url(#clip0_5_1778)" filter="url(#filter0_d_5_1778)">
<path d="M22 8H16C15.4477 8 15 8.44772 15 9V19C15 19.5523 15.4477 20 16 20H22C22.5523 20 23 19.5523 23 19V9C23 8.44772 22.5523 8 22 8Z" stroke="#0F151C" stroke-width="1.5" stroke-linecap="round" stroke-linejoin="round"/>
<path d="M20 8V5C20 4.73478 19.8946 4.48043 19.7071 4.29289C19.5196 4.10536 19.2652 4 19 4H6C5.73478 4 5.48043 4.10536 5.29289 4.29289C5.10536 4.48043 5 4.73478 5 5V17C5 17.2652 5.10536 17.5196 5.29289 17.7071C5.48043 17.8946 5.73478 18 6 18H15" stroke="#0F151C" stroke-width="1.5" stroke-linecap="round" stroke-linejoin="round"/>
<path d="M18 9H20" stroke="#0F151C" stroke-width="1.5" stroke-linecap="round" stroke-linejoin="round"/>
</g>
<defs>
<filter id="filter0_d_5_1778" x="-2" y="0" width="32" height="32" filterUnits="userSpaceOnUse" color-interpolation-filters="sRGB">
<feFlood flood-opacity="0" result="BackgroundImageFix"/>
<feColorMatrix in="SourceAlpha" type="matrix" values="0 0 0 0 0 0 0 0 0 0 0 0 0 0 0 0 0 0 127 0" result="hardAlpha"/>
<feOffset dy="4"/>
<feGaussianBlur stdDeviation="2"/>
<feComposite in2="hardAlpha" operator="out"/>
<feColorMatrix type="matrix" values="0 0 0 0 0 0 0 0 0 0 0 0 0 0 0 0 0 0 0.25 0"/>
<feBlend mode="normal" in2="BackgroundImageFix" result="effect1_dropShadow_5_1778"/>
<feBlend mode="normal" in="SourceGraphic" in2="effect1_dropShadow_5_1778" result="shape"/>
</filter>
<clipPath id="clip0_5_1778">
<rect width="24" height="24" fill="white" transform="translate(2)"/>
</clipPath>
</defs>
</svg>
