<svg width="67" height="53" viewBox="0 0 67 53" fill="none" xmlns="http://www.w3.org/2000/svg">
<path d="M62.7969 1.13513H4.20273C2.78341 1.13513 1.63281 2.28572 1.63281 3.70505V41.4778C1.63281 42.8972 2.78341 44.0478 4.20273 44.0478H62.7969C64.2163 44.0478 65.3669 42.8972 65.3669 41.4778V3.70505C65.3669 2.28572 64.2163 1.13513 62.7969 1.13513Z" stroke="#0F151C" stroke-width="1.5"/>
<path d="M42.4894 43.7942V51.2656M24.5 51.2656V43.7942" stroke="#0F151C" stroke-width="1.5"/>
<path d="M20.9062 51.2655H45.7171" stroke="#0F151C" stroke-width="1.5" stroke-linecap="round"/>
<path d="M1.37695 34.9078H65.625" stroke="#0F151C" stroke-width="1.5"/>
<path d="M25.7787 14.2079L20.2793 19.6743L25.7787 25.1407" stroke="#0F151C" stroke-width="1.5" stroke-linecap="round"/>
<path d="M40.8385 14.2079L46.3379 19.6743L40.8385 25.1407" stroke="#0F151C" stroke-width="1.5" stroke-linecap="round"/>
<path d="M35.8815 10.4282L31.2754 27.8553" stroke="#7051FF" stroke-width="1.5" stroke-linecap="round"/>
</svg>
